<svg width="246" height="708" viewBox="0 0 246 708" fill="none" xmlns="http://www.w3.org/2000/svg">
<mask id="mask0_10_2" style="mask-type:luminance" maskUnits="userSpaceOnUse" x="0" y="0" width="246" height="643">
<path d="M0.666748 0H246V642.667H0.666748V0Z" fill="white"/>
</mask>
<g mask="url(#mask0_10_2)">
<mask id="mask1_10_2" style="mask-type:luminance" maskUnits="userSpaceOnUse" x="-76" y="-602" width="1339" height="1364">
<path d="M1037.99 -601.135L1262.95 541.938L149.307 761.099L-75.6458 -381.974L1037.99 -601.135Z" fill="white"/>
</mask>
<g mask="url(#mask1_10_2)">
<mask id="mask2_10_2" style="mask-type:luminance" maskUnits="userSpaceOnUse" x="-76" y="-602" width="1339" height="1364">
<path d="M1037.99 -601.135L1262.95 541.938L149.307 761.099L-75.6458 -381.974L1037.99 -601.135Z" fill="white"/>
</mask>
<g mask="url(#mask2_10_2)">
<path d="M704.609 641.646C598.422 648.151 592.427 547.474 508.156 522.016C472.797 511.479 435.495 534.057 399.63 529.547C344.344 522.37 301.427 480.594 273.177 434.516C226.568 358.198 216.729 272.385 193.865 187.724C179.318 133.87 146.63 138.328 101.286 127.219C51.4427 114.74 13.151 69.2292 3.53125 18.9219C-6.14063 -31.6562 10.6823 -85.1875 42.8281 -125.375C79.8802 -172.167 135.771 -202.068 168.865 -251.755C202.234 -301.49 209.979 -366.781 250.708 -410.63C289.589 -452.422 350.901 -461.948 403.104 -440.339C452.922 -419.391 467.859 -369.281 507.167 -335.823C531.255 -315.172 563.094 -325.385 590.786 -310.802C631.104 -289.396 662.104 -255.146 684.948 -216.474C706.443 -180.354 715.104 -137.76 757.385 -119.276C815.443 -93.7396 892.172 -141.005 956.036 -134.672C1018.17 -128.557 1069.31 -95.1667 1092.52 -35.9688C1110.29 9.91147 1077.96 76.3698 1114.11 112.427C1172.39 170.651 1214.41 295.276 1146.19 361.464C1089.14 416.99 1029.43 383.031 970.51 355.974C931.161 338.042 866.703 292.88 844.526 357.911C826.125 412.036 863.193 467.099 849.078 521.51C830.349 594.042 768.724 637.771 704.609 641.646Z" fill="#D7FAAD"/>
</g>
</g>
</g>
<mask id="mask3_10_2" style="mask-type:luminance" maskUnits="userSpaceOnUse" x="175" y="0" width="71" height="708">
<path d="M175.333 0H246V708H175.333V0Z" fill="white"/>
</mask>
<g mask="url(#mask3_10_2)">
<mask id="mask4_10_2" style="mask-type:luminance" maskUnits="userSpaceOnUse" x="-131" y="-718" width="1604" height="1596">
<path d="M1472.36 217.906L512.245 877.755L-130.615 -57.6354L829.505 -717.484L1472.36 217.906Z" fill="white"/>
</mask>
<g mask="url(#mask4_10_2)">
<mask id="mask5_10_2" style="mask-type:luminance" maskUnits="userSpaceOnUse" x="-131" y="-718" width="1604" height="1596">
<path d="M1472.36 217.906L512.245 877.755L-130.615 -57.6354L829.505 -717.484L1472.36 217.906Z" fill="white"/>
</mask>
<g mask="url(#mask5_10_2)">
<path d="M199.281 404.75C151.192 309.849 241.239 264.417 231.187 176.964C226.833 140.328 191.312 115.036 181.229 80.3229C165.89 26.724 187.224 -29.2396 218.317 -73.4479C269.89 -146.505 344.765 -189.568 413.416 -244.135C457.083 -278.849 440.026 -307.089 432.239 -353.12C423.927 -403.823 450.521 -457.026 492.885 -485.807C535.479 -514.745 591.297 -520.531 640.937 -506.958C698.583 -491.505 748.203 -452.057 806.937 -441.38C865.828 -430.474 928.833 -449.26 985.245 -429.26C1039.03 -410.141 1072.09 -357.635 1072.96 -301.146C1073.48 -247.104 1033.41 -213.516 1018.28 -164.167C1008.88 -133.859 1030.89 -108.682 1028.48 -77.4791C1024.81 -31.9739 1005.67 10.0626 979.224 46.3698C954.594 80.4271 918.932 105.271 918.729 151.417C918.312 214.839 992.135 266.531 1011.65 327.672C1030.68 387.13 1020.31 447.318 975.172 492.104C940.104 526.62 866.265 523.297 847.505 570.781C817.172 647.37 719.427 735.37 631.614 699C558.015 668.651 565.51 600.37 566.984 535.547C567.838 492.312 583.729 415.234 515.234 420.661C458.25 425.24 422.406 481.104 366.859 489.729C292.849 501.302 228.26 462.068 199.281 404.75Z" fill="white"/>
</g>
</g>
</g>
</svg>
