<svg width="214" height="747" viewBox="0 0 214 747" fill="none" xmlns="http://www.w3.org/2000/svg">
<mask id="mask0_10_3" style="mask-type:luminance" maskUnits="userSpaceOnUse" x="0" y="0" width="214" height="747">
<path d="M0 0H213.333V746.667H0V0Z" fill="white"/>
</mask>
<g mask="url(#mask0_10_3)">
<mask id="mask1_10_3" style="mask-type:luminance" maskUnits="userSpaceOnUse" x="-1122" y="-219" width="1338" height="991">
<path d="M215.87 743.781L-1100.83 771.641L-1121.18 -190.146L195.526 -218.005L215.87 743.781Z" fill="white"/>
</mask>
<g mask="url(#mask1_10_3)">
<mask id="mask2_10_3" style="mask-type:luminance" maskUnits="userSpaceOnUse" x="-1122" y="-219" width="1338" height="991">
<path d="M215.87 743.781L-1100.83 771.641L-1121.18 -190.146L195.526 -218.005L215.87 743.781Z" fill="white"/>
</mask>
<g mask="url(#mask2_10_3)">
<path d="M-568.589 -24.776C-550.323 -32.4739 -532.396 -42.5 -515.677 -54.2552C-455.146 -96.7552 -411.474 -162 -337.328 -183.156C-286.729 -197.672 -232.583 -196.187 -183.38 -179.687C-242.193 -152.719 -281.682 -97.2083 -333.833 -59.5625C-402.698 -9.86977 -489.245 5.99483 -568.589 -24.776ZM-14.4896 45.9427C-13.5001 120.474 -49.2032 189.052 -61.4167 261.526C-68.4167 304.063 -67.4428 349.943 -51.3751 390.531C-35.0157 430.823 -0.562561 455.526 20.6979 492.5C34.3698 516.474 42.5676 544.37 43.1926 573.88C44.526 637.005 11.776 692.948 -38.4636 724.125C-35.5052 725.818 -32.2449 727.797 -28.9896 729.479C-5.33862 741.26 21.1145 747.13 47.4323 746.573C140.411 744.313 214.214 665.281 212.198 570.016C211.568 540.208 203.667 512.604 190.281 488.328C169.901 451.339 135.734 426.625 119.958 386.031C104.177 345.432 103.208 299.557 109.906 256.729C121.542 184.271 156.359 115.417 155.365 40.8907C154.448 -30.1354 119.057 -98.9635 65.4583 -143.437C2.93225 -195.323 -83.1199 -211.339 -160.172 -188.948C-168.307 -186.437 -176.146 -183.641 -183.969 -179.969C-156.271 -170.615 -130.24 -156.839 -107.021 -138.036C-51.6719 -93.5989 -15.4011 -24.7864 -14.4896 45.9427Z" fill="#AAA0F0"/>
</g>
</g>
</g>
<mask id="mask3_10_3" style="mask-type:luminance" maskUnits="userSpaceOnUse" x="0" y="0" width="44" height="726">
<path d="M0 0H44V725.333H0V0Z" fill="white"/>
</mask>
<g mask="url(#mask3_10_3)">
<mask id="mask4_10_3" style="mask-type:luminance" maskUnits="userSpaceOnUse" x="-1122" y="-219" width="1338" height="991">
<path d="M215.87 743.781L-1100.83 771.641L-1121.18 -190.146L195.526 -218.005L215.87 743.781Z" fill="white"/>
</mask>
<g mask="url(#mask4_10_3)">
<mask id="mask5_10_3" style="mask-type:luminance" maskUnits="userSpaceOnUse" x="-1122" y="-219" width="1338" height="991">
<path d="M215.87 743.781L-1100.83 771.641L-1121.18 -190.146L195.526 -218.005L215.87 743.781Z" fill="white"/>
</mask>
<g mask="url(#mask5_10_3)">
<path d="M-912.844 379.229C-913.484 321.359 -868.568 273.339 -811.844 272.135C-764.302 265.286 -672.016 230.297 -712.359 162.448C-731.781 129.531 -756.12 112.797 -757.875 71.3177C-759.099 41.2344 -747.438 11.75 -728.307 -10.5781C-703.755 -39.1666 -666.662 -55.7396 -628.448 -47.1927C-609.052 -42.9218 -591.01 -33.6562 -572.714 -26.151C-571.531 -25.5937 -570.057 -25.0364 -568.88 -24.7708C-489.537 6.00003 -403.281 -9.85414 -334.417 -59.5521C-282.266 -97.1979 -242.484 -152.708 -183.964 -179.677C-156.266 -170.323 -130.234 -156.547 -107.016 -137.745C-51.6719 -93.5989 -15.4011 -24.7864 -14.4896 45.9427C-13.5001 120.474 -49.2032 189.052 -61.4167 261.526C-68.4167 304.063 -67.4427 349.943 -51.3751 390.531C-35.0157 430.823 -0.562561 455.526 20.6979 492.5C34.3698 516.474 42.5676 544.37 43.1926 573.88C44.526 637.005 11.776 692.948 -38.4636 724.125C-75.198 702.391 -101.13 665.813 -139.875 645.875C-192.823 618.344 -239.792 624.599 -290.458 635.609C-312.005 640.453 -334.526 640.635 -356.286 635.25C-396.865 625.292 -435.057 631.656 -475.823 640.411C-480.25 638.75 -484.385 636.792 -488.521 634.833C-524.01 616.578 -544.438 577.542 -563.292 543.74C-614.984 450.984 -720.193 483.615 -808.005 481.089C-808.885 481.109 -810.052 481.13 -810.938 480.859C-866.859 478.531 -911.849 440.016 -912.844 379.229Z" fill="#D7FAAD"/>
</g>
</g>
</g>
</svg>
