<svg width="117" height="117" viewBox="0 0 117 117" fill="none" xmlns="http://www.w3.org/2000/svg">
<mask id="mask0_6_188" style="mask-type:luminance" maskUnits="userSpaceOnUse" x="0" y="0" width="117" height="117">
<path d="M0.973877 0.510498H116.974V116.51H0.973877V0.510498Z" fill="white"/>
</mask>
<g mask="url(#mask0_6_188)">
<path d="M58.9739 0.510498C26.9999 0.510498 0.973877 26.5365 0.973877 58.5105C0.973877 90.4792 26.9999 116.51 58.9739 116.51C90.9426 116.51 116.974 90.4792 116.974 58.5105C116.974 26.5365 90.9426 0.510498 58.9739 0.510498ZM84.677 85.0157C84.677 85.9011 83.9583 86.6251 83.0728 86.6251H34.7135C33.828 86.6251 33.1041 85.9011 33.1041 85.0157V83.172C33.1041 79.9584 35.677 77.3855 38.8905 77.3855H78.8958C82.1093 77.3855 84.677 79.9584 84.677 83.172V85.0157ZM84.9218 48.224L60.0155 72.5678C59.6978 72.8855 59.2916 73.047 58.8905 73.047C58.4895 73.047 58.0885 72.8855 57.7655 72.5678L32.8645 48.224C32.3801 47.7449 32.2239 47.099 32.4635 46.4584C32.703 45.8178 33.2655 45.4949 33.9895 45.4949H46.4426V31.8386C46.4426 28.1407 49.4947 25.0886 53.1874 25.0886H64.276C67.9687 25.0886 71.0208 28.1407 71.0208 31.8386V45.4949H83.7968C84.4374 45.4949 84.9999 45.8959 85.3228 46.4584C85.6405 47.0209 85.401 47.823 84.9218 48.224Z" fill="white"/>
</g>
</svg>
