<svg width="209" height="57" viewBox="0 0 209 57" fill="none" xmlns="http://www.w3.org/2000/svg">
<path d="M51.7064 27.8083V38.7042C50.4147 44.6781 47.571 49.199 43.1855 52.2667C38.8105 55.324 33.9199 56.85 28.5189 56.85C21.7533 56.85 15.9824 54.3188 11.2064 49.2458C6.44075 44.1781 4.06055 38.0531 4.06055 30.8708C4.06055 23.5688 6.39388 17.4021 11.0605 12.3708C15.7272 7.32918 21.5449 4.80835 28.5189 4.80835C36.6855 4.80835 43.1335 7.67293 47.873 13.3917L40.3939 21.6208C37.7116 17.3188 33.9824 15.1625 29.2064 15.1625C25.6647 15.1625 22.6439 16.699 20.1439 19.7667C17.6543 22.824 16.4147 26.5271 16.4147 30.8708C16.4147 35.1208 17.6543 38.7615 20.1439 41.7875C22.6439 44.8031 25.6647 46.3083 29.2064 46.3083C32.123 46.3083 34.6647 45.4281 36.8314 43.6625C38.998 41.9021 40.0814 39.5583 40.0814 36.6417H28.5189V27.8083H51.7064Z" fill="white"/>
<path d="M68.2007 5.7251V55.9334H56.7632V5.7251H68.2007Z" fill="white"/>
<path d="M75.5078 5.7251H93.4661C98.2995 5.7251 102.237 7.01676 105.279 9.6001C108.32 12.173 109.841 15.8501 109.841 20.6418C109.841 24.3397 108.914 27.4334 107.07 29.9334C105.221 32.423 102.716 34.173 99.5495 35.1834L116.841 55.9334H102.299L86.9453 36.1001V55.9334H75.5078V5.7251ZM86.9453 27.9959H88.2995C89.3516 27.9959 90.2422 27.9751 90.9661 27.9334C91.7005 27.8918 92.5339 27.7563 93.4661 27.5168C94.3932 27.2668 95.1432 26.923 95.7161 26.4751C96.2839 26.0324 96.7682 25.3866 97.1745 24.5376C97.5755 23.6782 97.7786 22.6418 97.7786 21.4334C97.7786 20.2147 97.5755 19.1782 97.1745 18.3293C96.7682 17.4699 96.2839 16.8188 95.7161 16.3709C95.1432 15.9282 94.3932 15.5897 93.4661 15.3501C92.5339 15.1001 91.7005 14.9543 90.9661 14.9126C90.2422 14.8709 89.3516 14.8501 88.2995 14.8501H86.9453V27.9959Z" fill="white"/>
<path d="M144.583 5.7251L164.854 55.9334H152.562L148.854 45.8918H129.729L126.021 55.9334H113.729L134 5.7251H144.583ZM144.958 35.8501L139.354 21.2459H139.229L133.625 35.8501H144.958Z" fill="white"/>
<path d="M166.797 5.7251H184.755C189.589 5.7251 193.526 7.01676 196.568 9.6001C199.609 12.173 201.13 15.8501 201.13 20.6418C201.13 24.3397 200.203 27.4334 198.359 29.9334C196.51 32.423 194.005 34.173 190.839 35.1834L208.13 55.9334H193.589L178.234 36.1001V55.9334H166.797V5.7251ZM178.234 27.9959H179.589C180.641 27.9959 181.531 27.9751 182.255 27.9334C182.99 27.8918 183.823 27.7563 184.755 27.5168C185.682 27.2668 186.432 26.923 187.005 26.4751C187.573 26.0324 188.057 25.3866 188.464 24.5376C188.865 23.6782 189.068 22.6418 189.068 21.4334C189.068 20.2147 188.865 19.1782 188.464 18.3293C188.057 17.4699 187.573 16.8188 187.005 16.3709C186.432 15.9282 185.682 15.5897 184.755 15.3501C183.823 15.1001 182.99 14.9543 182.255 14.9126C181.531 14.8709 180.641 14.8501 179.589 14.8501H178.234V27.9959Z" fill="white"/>
<path d="M49.0209 25.1303V36.0209C47.724 41.9844 44.8855 46.5 40.5105 49.5573C36.1303 52.6198 31.2397 54.1511 25.8438 54.1511C19.0678 54.1511 13.2917 51.6146 8.52092 46.5417C3.75529 41.4688 1.36987 35.3438 1.36987 28.1615C1.36987 20.8594 3.70321 14.698 8.36987 9.6615C13.0365 4.63025 18.8595 2.11462 25.8438 2.11462C33.9949 2.11462 40.4428 4.97921 45.1876 10.7032L37.7136 18.9219C35.0313 14.6198 31.297 12.474 26.5105 12.474C22.9845 12.474 19.974 14 17.4792 17.0625C14.9845 20.125 13.7345 23.823 13.7345 28.1615C13.7345 32.4323 14.9845 36.0782 17.4792 39.099C19.974 42.1198 22.9845 43.6303 26.5105 43.6303C29.4324 43.6303 31.9793 42.75 34.1511 40.9844C36.3178 39.2136 37.4011 36.8698 37.4011 33.9584H25.8438V25.1303H49.0209ZM65.5209 3.0365V53.2448H54.0834V3.0365H65.5209ZM72.8282 3.0365H90.7761C95.6095 3.0365 99.547 4.32296 102.589 6.90108C105.63 9.474 107.151 13.1563 107.151 17.9375C107.151 21.6355 106.224 24.7292 104.37 27.224C102.531 29.724 100.026 31.474 96.8699 32.4844L114.146 53.2448H99.6043L84.2657 33.4063V53.2448H72.8282V3.0365ZM84.2657 25.3073H85.6042C86.6563 25.3073 87.547 25.2917 88.2813 25.25C89.0105 25.2084 89.8438 25.073 90.7761 24.8334C91.7084 24.5886 92.4532 24.2396 93.0209 23.7917C93.5938 23.3386 94.0834 22.6823 94.4897 21.8334C94.8959 20.9792 95.099 19.9532 95.099 18.7396C95.099 17.5261 94.8959 16.4896 94.4897 15.6355C94.0834 14.7865 93.5938 14.1355 93.0209 13.6927C92.4532 13.2448 91.7084 12.8959 90.7761 12.6511C89.8438 12.4011 89.0105 12.2605 88.2813 12.2188C87.547 12.1823 86.6563 12.1615 85.6042 12.1615H84.2657V25.3073ZM141.901 3.0365L162.167 53.2448H149.88L146.162 43.198H127.057L123.344 53.2448H111.037L131.307 3.0365H141.901ZM142.271 33.1563L136.672 18.5469H136.552L130.948 33.1563H142.271ZM164.115 3.0365H182.068C186.901 3.0365 190.839 4.32296 193.88 6.90108C196.917 9.474 198.438 13.1563 198.438 17.9375C198.438 21.6355 197.516 24.7292 195.662 27.224C193.818 29.724 191.318 31.474 188.156 32.4844L205.438 53.2448H190.891L175.557 33.4063V53.2448H164.115V3.0365ZM175.557 25.3073H176.896C177.943 25.3073 178.839 25.2917 179.568 25.25C180.302 25.2084 181.136 25.073 182.068 24.8334C182.995 24.5886 183.745 24.2396 184.307 23.7917C184.886 23.3386 185.375 22.6823 185.781 21.8334C186.188 20.9792 186.391 19.9532 186.391 18.7396C186.391 17.5261 186.188 16.4896 185.781 15.6355C185.375 14.7865 184.886 14.1355 184.307 13.6927C183.745 13.2448 182.995 12.8959 182.068 12.6511C181.136 12.4011 180.302 12.2605 179.568 12.2188C178.839 12.1823 177.943 12.1615 176.896 12.1615H175.557V25.3073Z" stroke="white" stroke-width="2.28254"/>
</svg>
