<svg width="116" height="116" viewBox="0 0 116 116" fill="none" xmlns="http://www.w3.org/2000/svg">
<path d="M57.9167 45.6042C50.8958 45.6042 45.1719 51.3282 45.1719 58.349C45.1719 65.3699 50.8958 71.0938 57.9167 71.0938C64.9375 71.0938 70.6615 65.3699 70.6615 58.349C70.6615 51.3282 64.9375 45.6042 57.9167 45.6042Z" fill="white"/>
<path d="M75.0417 27.0835H40.7917C33.0261 27.0835 26.6511 33.4064 26.6511 41.2241V75.4741C26.6511 83.2397 32.974 89.6147 40.7917 89.6147H75.0417C82.8074 89.6147 89.1824 83.2918 89.1824 75.4741V41.2241C89.1303 33.4064 82.8074 27.0835 75.0417 27.0835ZM57.9167 77.5158C47.3126 77.5158 38.7032 68.9064 38.7032 58.3022C38.7032 47.6981 47.3126 39.0835 57.9167 39.0835C68.5209 39.0835 77.1355 47.6981 77.1355 58.3022C77.0834 68.9064 68.474 77.5158 57.9167 77.5158ZM78.4792 42.3179C75.9376 42.3179 73.849 40.2293 73.849 37.6877C73.849 35.1512 75.9376 33.0575 78.4792 33.0575C81.0157 33.0575 83.1095 35.1512 83.1095 37.6877C83.1095 40.2762 81.0678 42.3179 78.4792 42.3179Z" fill="white"/>
<mask id="mask0_10_6" style="mask-type:luminance" maskUnits="userSpaceOnUse" x="0" y="0" width="116" height="116">
<path d="M0.416748 0.849121H115.417V115.849H0.416748V0.849121Z" fill="white"/>
</mask>
<g mask="url(#mask0_10_6)">
<path d="M57.9167 0.849121C26.1563 0.849121 0.416748 26.5887 0.416748 58.3491C0.416748 90.1095 26.1563 115.849 57.9167 115.849C89.6772 115.849 115.417 90.1095 115.417 58.3491C115.37 26.5887 89.6303 0.849121 57.9167 0.849121ZM95.6042 75.4741C95.6042 86.8283 86.3438 96.0835 74.9949 96.0835H40.7917C29.4428 96.0835 20.1824 86.8283 20.1824 75.4741V41.2241C20.1824 29.8752 29.4428 20.6147 40.7917 20.6147H75.0417C86.3959 20.6147 95.6511 29.8752 95.6511 41.2241V75.4741H95.6042Z" fill="white"/>
</g>
</svg>
