<svg width="295" height="125" viewBox="0 0 295 125" fill="none" xmlns="http://www.w3.org/2000/svg">
<mask id="mask0_10_9" style="mask-type:luminance" maskUnits="userSpaceOnUse" x="0" y="0" width="295" height="110">
<path d="M0.333252 0.21875H294.167V110H0.333252V0.21875Z" fill="white"/>
</mask>
<g mask="url(#mask0_10_9)">
<path d="M293.844 54.5469V54.7708C293.844 54.849 293.844 54.849 293.844 54.9219C293.844 85.151 269.25 109.63 238.891 109.63H55.4374C25.078 109.63 0.489502 85.0729 0.489502 54.9219C0.489502 54.7708 0.489502 54.6979 0.489502 54.5469C0.489502 54.3958 0.489502 54.3177 0.489502 54.1667C0.942626 24.3229 25.3072 0.21875 55.4374 0.21875H238.891C238.891 0.21875 238.891 0.21875 238.963 0.21875C269.099 0.21875 293.615 24.474 293.844 54.5469ZM293.844 54.5469V54.7708C293.844 54.849 293.844 54.849 293.844 54.9219C293.844 85.151 269.25 109.63 238.891 109.63H55.4374C25.078 109.63 0.489502 85.0729 0.489502 54.9219C0.489502 54.7708 0.489502 54.6979 0.489502 54.5469C0.489502 54.3958 0.489502 54.3177 0.489502 54.1667C0.942626 24.3229 25.3072 0.21875 55.4374 0.21875H238.891C238.891 0.21875 238.891 0.21875 238.963 0.21875C269.099 0.21875 293.615 24.474 293.844 54.5469Z" fill="#C9E265"/>
</g>
<mask id="mask1_10_9" style="mask-type:luminance" maskUnits="userSpaceOnUse" x="0" y="0" width="295" height="125">
<path d="M0.333252 0.21875H294.167V124.214H0.333252V0.21875Z" fill="white"/>
</mask>
<g mask="url(#mask1_10_9)">
<path d="M238.963 0.21875C238.891 0.21875 238.891 0.21875 238.963 0.21875H55.4374C25.3072 0.21875 0.942626 24.3229 0.489502 54.1667C0.489502 54.3177 0.489502 54.3958 0.489502 54.5469C0.489502 54.6979 0.489502 54.7708 0.489502 54.9219C0.489502 56.3594 0.562418 57.7188 0.640544 59.0781H0.489502V68.75C0.489502 68.901 0.489502 68.9792 0.489502 69.1302C0.489502 69.2812 0.489502 69.3594 0.489502 69.5104C0.489502 99.6563 25.078 124.219 55.4374 124.219H238.891C269.25 124.219 293.844 99.7344 293.844 69.5104C293.844 69.4323 293.844 69.4323 293.844 69.3594V59.0781H293.687C293.766 57.7188 293.844 56.3594 293.844 54.9219C293.844 54.849 293.844 54.849 293.844 54.7708V54.5469C293.615 24.474 269.099 0.21875 238.963 0.21875ZM8.07804 54.5469V54.2448C8.30721 41.776 13.3124 30.1406 22.1978 21.375C31.078 12.6094 42.9166 7.77083 55.4374 7.77083H238.963C251.49 7.77083 263.328 12.6094 272.286 21.4479C281.167 30.2917 286.177 42.0052 286.25 54.5469V54.9219C286.25 80.9167 265 102.078 238.891 102.078H55.4374C29.328 102.078 8.07804 80.9167 8.07804 54.9219V54.5469Z" fill="#AAA0F0"/>
</g>
<mask id="mask2_10_9" style="mask-type:luminance" maskUnits="userSpaceOnUse" x="27" y="17" width="240" height="72">
<path d="M27 17.7031H267V88.9531H27V17.7031Z" fill="white"/>
</mask>
<g mask="url(#mask2_10_9)">
<mask id="mask3_10_9" style="mask-type:luminance" maskUnits="userSpaceOnUse" x="27" y="17" width="240" height="72">
<path d="M62.5417 17.7031H231.458C251.089 17.7031 267 33.6146 267 53.2448C267 72.8698 251.089 88.7865 231.458 88.7865H62.5417C42.9115 88.7865 27 72.8698 27 53.2448C27 33.6146 42.9115 17.7031 62.5417 17.7031Z" fill="white"/>
</mask>
<g mask="url(#mask3_10_9)">
<path d="M27 17.7031H267V88.9531H27V17.7031Z" fill="#C9E265"/>
</g>
</g>
<path d="M96.7064 52.8084V63.7042C95.4147 69.6781 92.571 74.199 88.1855 77.2667C83.8105 80.324 78.9199 81.85 73.5189 81.85C66.7533 81.85 60.9824 79.3188 56.2064 74.2459C51.4408 69.1781 49.0605 63.0531 49.0605 55.8709C49.0605 48.5688 51.3939 42.4021 56.0605 37.3708C60.7272 32.3292 66.5449 29.8083 73.5189 29.8083C81.6855 29.8083 88.1335 32.6729 92.873 38.3917L85.3939 46.6209C82.7116 42.3188 78.9824 40.1625 74.2064 40.1625C70.6647 40.1625 67.6439 41.699 65.1439 44.7667C62.6543 47.824 61.4147 51.5271 61.4147 55.8709C61.4147 60.1209 62.6543 63.7615 65.1439 66.7875C67.6439 69.8031 70.6647 71.3084 74.2064 71.3084C77.123 71.3084 79.6647 70.4281 81.8314 68.6625C83.998 66.9021 85.0814 64.5584 85.0814 61.6417H73.5189V52.8084H96.7064Z" fill="white"/>
<path d="M113.201 30.7251V80.9334H101.763V30.7251H113.201Z" fill="white"/>
<path d="M120.508 30.7251H138.466C143.299 30.7251 147.237 32.0168 150.279 34.6001C153.32 37.173 154.841 40.8501 154.841 45.6418C154.841 49.3397 153.914 52.4334 152.07 54.9334C150.221 57.423 147.716 59.173 144.549 60.1834L161.841 80.9334H147.299L131.945 61.1001V80.9334H120.508V30.7251ZM131.945 52.9959H133.299C134.352 52.9959 135.242 52.9751 135.966 52.9334C136.701 52.8918 137.534 52.7563 138.466 52.5168C139.393 52.2668 140.143 51.923 140.716 51.4751C141.284 51.0324 141.768 50.3866 142.174 49.5376C142.576 48.6782 142.779 47.6418 142.779 46.4334C142.779 45.2147 142.576 44.1782 142.174 43.3293C141.768 42.4699 141.284 41.8188 140.716 41.3709C140.143 40.9282 139.393 40.5897 138.466 40.3501C137.534 40.1001 136.701 39.9543 135.966 39.9126C135.242 39.8709 134.352 39.8501 133.299 39.8501H131.945V52.9959Z" fill="white"/>
<path d="M189.583 30.7251L209.854 80.9334H197.562L193.854 70.8918H174.729L171.021 80.9334H158.729L179 30.7251H189.583ZM189.958 60.8501L184.354 46.2459H184.229L178.625 60.8501H189.958Z" fill="white"/>
<path d="M211.797 30.7251H229.755C234.589 30.7251 238.526 32.0168 241.568 34.6001C244.609 37.173 246.13 40.8501 246.13 45.6418C246.13 49.3397 245.203 52.4334 243.359 54.9334C241.51 57.423 239.005 59.173 235.839 60.1834L253.13 80.9334H238.589L223.234 61.1001V80.9334H211.797V30.7251ZM223.234 52.9959H224.589C225.641 52.9959 226.531 52.9751 227.255 52.9334C227.99 52.8918 228.823 52.7563 229.755 52.5168C230.682 52.2668 231.432 51.923 232.005 51.4751C232.573 51.0324 233.057 50.3866 233.464 49.5376C233.865 48.6782 234.068 47.6418 234.068 46.4334C234.068 45.2147 233.865 44.1782 233.464 43.3293C233.057 42.4699 232.573 41.8188 232.005 41.3709C231.432 40.9282 230.682 40.5897 229.755 40.3501C228.823 40.1001 227.99 39.9543 227.255 39.9126C226.531 39.8709 225.641 39.8501 224.589 39.8501H223.234V52.9959Z" fill="white"/>
<path d="M94.0209 50.1303V61.0209C92.724 66.9844 89.8855 71.5 85.5105 74.5573C81.1303 77.6198 76.2397 79.1511 70.8438 79.1511C64.0678 79.1511 58.2917 76.6146 53.5209 71.5417C48.7553 66.4688 46.3699 60.3438 46.3699 53.1615C46.3699 45.8594 48.7032 39.698 53.3699 34.6615C58.0365 29.6302 63.8595 27.1146 70.8438 27.1146C78.9949 27.1146 85.4428 29.9792 90.1876 35.7032L82.7136 43.9219C80.0313 39.6198 76.297 37.474 71.5105 37.474C67.9845 37.474 64.974 39 62.4792 42.0625C59.9845 45.125 58.7345 48.823 58.7345 53.1615C58.7345 57.4323 59.9845 61.0782 62.4792 64.099C64.974 67.1198 67.9845 68.6303 71.5105 68.6303C74.4324 68.6303 76.9793 67.75 79.1511 65.9844C81.3178 64.2136 82.4011 61.8698 82.4011 58.9584H70.8438V50.1303H94.0209ZM110.521 28.0365V78.2448H99.0834V28.0365H110.521ZM117.828 28.0365H135.776C140.609 28.0365 144.547 29.323 147.589 31.9011C150.63 34.474 152.151 38.1563 152.151 42.9375C152.151 46.6355 151.224 49.7292 149.37 52.224C147.531 54.724 145.026 56.474 141.87 57.4844L159.146 78.2448H144.604L129.266 58.4063V78.2448H117.828V28.0365ZM129.266 50.3073H130.604C131.656 50.3073 132.547 50.2917 133.281 50.25C134.011 50.2084 134.844 50.073 135.776 49.8334C136.708 49.5886 137.453 49.2396 138.021 48.7917C138.594 48.3386 139.083 47.6823 139.49 46.8334C139.896 45.9792 140.099 44.9532 140.099 43.7396C140.099 42.5261 139.896 41.4896 139.49 40.6355C139.083 39.7865 138.594 39.1355 138.021 38.6927C137.453 38.2448 136.708 37.8959 135.776 37.6511C134.844 37.4011 134.011 37.2605 133.281 37.2188C132.547 37.1823 131.656 37.1615 130.604 37.1615H129.266V50.3073ZM186.901 28.0365L207.167 78.2448H194.88L191.162 68.198H172.057L168.344 78.2448H156.037L176.307 28.0365H186.901ZM187.271 58.1563L181.672 43.5469H181.552L175.948 58.1563H187.271ZM209.115 28.0365H227.068C231.901 28.0365 235.839 29.323 238.88 31.9011C241.917 34.474 243.438 38.1563 243.438 42.9375C243.438 46.6355 242.516 49.7292 240.662 52.224C238.818 54.724 236.318 56.474 233.156 57.4844L250.438 78.2448H235.891L220.557 58.4063V78.2448H209.115V28.0365ZM220.557 50.3073H221.896C222.943 50.3073 223.839 50.2917 224.568 50.25C225.302 50.2084 226.136 50.073 227.068 49.8334C227.995 49.5886 228.745 49.2396 229.307 48.7917C229.886 48.3386 230.375 47.6823 230.781 46.8334C231.188 45.9792 231.391 44.9532 231.391 43.7396C231.391 42.5261 231.188 41.4896 230.781 40.6355C230.375 39.7865 229.886 39.1355 229.307 38.6927C228.745 38.2448 227.995 37.8959 227.068 37.6511C226.136 37.4011 225.302 37.2605 224.568 37.2188C223.839 37.1823 222.943 37.1615 221.896 37.1615H220.557V50.3073Z" stroke="white" stroke-width="2.28254"/>
</svg>
