<svg width="108" height="46" viewBox="0 0 108 46" fill="none" xmlns="http://www.w3.org/2000/svg">
<mask id="mask0_26_3" style="mask-type:luminance" maskUnits="userSpaceOnUse" x="0" y="0" width="108" height="46">
<path d="M0.333252 0.901123H107.458V45.3334H0.333252V0.901123Z" fill="white"/>
</mask>
<g mask="url(#mask0_26_3)">
<path d="M94.1144 1.45846V1.25012L92.5051 1.25533C60.5311 1.45325 29.0936 9.172 0.994629 23.7189C29.2655 37.9272 60.7915 45.2657 92.7707 45.073L94.3801 45.0626L94.3696 44.8543C101.667 44.8126 107.526 35.0626 107.448 23.0782C107.38 11.0887 101.406 1.41679 94.1144 1.45846Z" fill="#FFE198"/>
</g>
<path d="M83.1875 33.9479C77.3125 34.0417 72.4792 29.3594 72.3854 23.4948C72.2917 17.625 76.974 12.7917 82.8438 12.6979C88.7188 12.6042 93.5521 17.2813 93.6458 23.151C93.7396 29.026 89.0573 33.8542 83.1875 33.9479Z" fill="#FFC947"/>
</svg>
