<svg width="295" height="125" viewBox="0 0 295 125" fill="none" xmlns="http://www.w3.org/2000/svg">
<mask id="mask0_34_11" style="mask-type:luminance" maskUnits="userSpaceOnUse" x="0" y="0" width="295" height="110">
<path d="M0.333252 0.21875H294.167V110H0.333252V0.21875Z" fill="white"/>
</mask>
<g mask="url(#mask0_34_11)">
<path d="M293.844 54.5469V54.7708C293.844 54.849 293.844 54.849 293.844 54.9219C293.844 85.151 269.25 109.63 238.891 109.63H55.4374C25.078 109.63 0.489502 85.0729 0.489502 54.9219C0.489502 54.7708 0.489502 54.6979 0.489502 54.5469C0.489502 54.3958 0.489502 54.3177 0.489502 54.1667C0.942626 24.3229 25.3072 0.21875 55.4374 0.21875H238.891C238.891 0.21875 238.891 0.21875 238.963 0.21875C269.099 0.21875 293.615 24.474 293.844 54.5469ZM293.844 54.5469V54.7708C293.844 54.849 293.844 54.849 293.844 54.9219C293.844 85.151 269.25 109.63 238.891 109.63H55.4374C25.078 109.63 0.489502 85.0729 0.489502 54.9219C0.489502 54.7708 0.489502 54.6979 0.489502 54.5469C0.489502 54.3958 0.489502 54.3177 0.489502 54.1667C0.942626 24.3229 25.3072 0.21875 55.4374 0.21875H238.891C238.891 0.21875 238.891 0.21875 238.963 0.21875C269.099 0.21875 293.615 24.474 293.844 54.5469Z" fill="#C9E265"/>
</g>
<mask id="mask1_34_11" style="mask-type:luminance" maskUnits="userSpaceOnUse" x="0" y="0" width="295" height="125">
<path d="M0.333252 0.21875H294.167V124.214H0.333252V0.21875Z" fill="white"/>
</mask>
<g mask="url(#mask1_34_11)">
<path d="M238.963 0.21875C238.891 0.21875 238.891 0.21875 238.963 0.21875H55.4374C25.3072 0.21875 0.942626 24.3229 0.489502 54.1667C0.489502 54.3177 0.489502 54.3958 0.489502 54.5469C0.489502 54.6979 0.489502 54.7708 0.489502 54.9219C0.489502 56.3594 0.562418 57.7188 0.640544 59.0781H0.489502V68.75C0.489502 68.901 0.489502 68.9792 0.489502 69.1302C0.489502 69.2813 0.489502 69.3594 0.489502 69.5104C0.489502 99.6563 25.078 124.219 55.4374 124.219H238.891C269.25 124.219 293.844 99.7344 293.844 69.5104C293.844 69.4323 293.844 69.4323 293.844 69.3594V59.0781H293.687C293.766 57.7188 293.844 56.3594 293.844 54.9219C293.844 54.849 293.844 54.849 293.844 54.7708V54.5469C293.615 24.474 269.099 0.21875 238.963 0.21875ZM8.07804 54.5469V54.2448C8.30721 41.776 13.3124 30.1406 22.1978 21.375C31.078 12.6094 42.9166 7.77083 55.4374 7.77083H238.963C251.49 7.77083 263.328 12.6094 272.286 21.4479C281.167 30.2917 286.177 42.0052 286.25 54.5469V54.9219C286.25 80.9167 265 102.078 238.891 102.078H55.4374C29.328 102.078 8.07804 80.9167 8.07804 54.9219V54.5469Z" fill="#AAA0F0"/>
</g>
<mask id="mask2_34_11" style="mask-type:luminance" maskUnits="userSpaceOnUse" x="27" y="17" width="240" height="72">
<path d="M27 17.7031H267V88.9531H27V17.7031Z" fill="white"/>
</mask>
<g mask="url(#mask2_34_11)">
<mask id="mask3_34_11" style="mask-type:luminance" maskUnits="userSpaceOnUse" x="27" y="17" width="240" height="72">
<path d="M62.5417 17.7031H231.458C251.089 17.7031 267 33.6146 267 53.2448C267 72.8698 251.089 88.7865 231.458 88.7865H62.5417C42.9115 88.7865 27 72.8698 27 53.2448C27 33.6146 42.9115 17.7031 62.5417 17.7031Z" fill="white"/>
</mask>
<g mask="url(#mask3_34_11)">
<path d="M27 17.7031H267V88.9531H27V17.7031Z" fill="#C9E265"/>
</g>
</g>
<path d="M56.3227 60.3731H62.3275C62.207 62.3412 61.6648 64.0885 60.7008 65.6148C59.7502 67.1411 58.418 68.3327 56.7043 69.1895C55.0039 70.0464 52.9555 70.4749 50.5589 70.4749C48.6845 70.4749 47.0042 70.1535 45.5181 69.5109C44.0319 68.8548 42.76 67.9176 41.7023 66.6992C40.658 65.4809 39.8614 64.0081 39.3124 62.281C38.7635 60.5539 38.489 58.6192 38.489 56.477V54.4486C38.489 52.3064 38.7702 50.3718 39.3325 48.6446C39.9082 46.9041 40.7249 45.4247 41.7826 44.2063C42.8537 42.9879 44.1323 42.0507 45.6185 41.3947C47.1046 40.7386 48.7648 40.4106 50.5991 40.4106C53.0358 40.4106 55.0909 40.8524 56.7645 41.7361C58.4515 42.6198 59.7569 43.8381 60.6807 45.3912C61.6179 46.9443 62.1802 48.7116 62.3677 50.6931H56.3428C56.2758 49.5149 56.0415 48.5175 55.6399 47.7007C55.2382 46.8706 54.629 46.2481 53.8123 45.833C53.009 45.4046 51.9379 45.1904 50.5991 45.1904C49.5949 45.1904 48.7179 45.3778 47.9682 45.7527C47.2184 46.1276 46.5892 46.6966 46.0804 47.4597C45.5716 48.2229 45.19 49.1869 44.9357 50.3517C44.6947 51.5031 44.5742 52.8554 44.5742 54.4085V56.477C44.5742 57.9899 44.688 59.3221 44.9156 60.4735C45.1432 61.6116 45.4913 62.5755 45.9599 63.3655C46.4419 64.142 47.0578 64.7311 47.8075 65.1328C48.5707 65.521 49.4878 65.7152 50.5589 65.7152C51.8174 65.7152 52.855 65.5144 53.6717 65.1127C54.4885 64.711 55.111 64.1152 55.5395 63.3253C55.9813 62.5354 56.2424 61.5513 56.3227 60.3731Z" fill="white"/>
<path d="M90.3031 54.77V56.1557C90.3031 58.3782 90.0019 60.3731 89.3994 62.1404C88.7969 63.9077 87.9467 65.4139 86.8488 66.6591C85.751 67.8908 84.4389 68.8347 82.9126 69.4908C81.3997 70.1468 79.7194 70.4749 77.8717 70.4749C76.0375 70.4749 74.3572 70.1468 72.8309 69.4908C71.318 68.8347 70.0059 67.8908 68.8947 66.6591C67.7834 65.4139 66.9198 63.9077 66.3039 62.1404C65.7015 60.3731 65.4002 58.3782 65.4002 56.1557V54.77C65.4002 52.5341 65.7015 50.5391 66.3039 48.7852C66.9064 47.0179 67.7566 45.5117 68.8545 44.2666C69.9657 43.0214 71.2778 42.0708 72.7907 41.4148C74.3171 40.7587 75.9973 40.4307 77.8316 40.4307C79.6792 40.4307 81.3595 40.7587 82.8724 41.4148C84.3987 42.0708 85.7108 43.0214 86.8087 44.2666C87.9199 45.5117 88.7768 47.0179 89.3793 48.7852C89.9952 50.5391 90.3031 52.5341 90.3031 54.77ZM84.218 56.1557V54.7298C84.218 53.1767 84.0774 51.8111 83.7962 50.6329C83.5151 49.4547 83.1 48.4639 82.5511 47.6606C82.0021 46.8573 81.3327 46.2548 80.5428 45.8531C79.7529 45.4381 78.8491 45.2305 77.8316 45.2305C76.814 45.2305 75.9103 45.4381 75.1204 45.8531C74.3438 46.2548 73.6811 46.8573 73.1322 47.6606C72.5966 48.4639 72.1883 49.4547 71.9071 50.6329C71.6259 51.8111 71.4854 53.1767 71.4854 54.7298V56.1557C71.4854 57.6954 71.6259 59.061 71.9071 60.2526C72.1883 61.4308 72.6033 62.4283 73.1522 63.245C73.7012 64.0483 74.3706 64.6575 75.1605 65.0725C75.9505 65.4876 76.8542 65.6951 77.8717 65.6951C78.8893 65.6951 79.793 65.4876 80.5829 65.0725C81.3729 64.6575 82.0356 64.0483 82.5712 63.245C83.1067 62.4283 83.5151 61.4308 83.7962 60.2526C84.0774 59.061 84.218 57.6954 84.218 56.1557Z" fill="white"/>
<path d="M97.3924 40.8324H102.493L110.005 62.3011L117.516 40.8324H122.617L112.053 70.0732H107.956L97.3924 40.8324ZM94.641 40.8324H99.722L100.646 61.7588V70.0732H94.641V40.8324ZM120.287 40.8324H125.388V70.0732H119.363V61.7588L120.287 40.8324Z" fill="white"/>
<path d="M142.057 59.6501H134.606V54.9507H142.057C143.208 54.9507 144.146 54.7633 144.869 54.3884C145.592 54.0001 146.12 53.4646 146.455 52.7817C146.79 52.0989 146.957 51.3291 146.957 50.4722C146.957 49.6019 146.79 48.7919 146.455 48.0422C146.12 47.2924 145.592 46.6899 144.869 46.2347C144.146 45.7795 143.208 45.5519 142.057 45.5519H136.695V70.0732H130.67V40.8324H142.057C144.346 40.8324 146.308 41.2474 147.941 42.0775C149.588 42.8942 150.847 44.0256 151.717 45.4715C152.587 46.9175 153.022 48.571 153.022 50.432C153.022 52.3198 152.587 53.9532 151.717 55.3323C150.847 56.7113 149.588 57.7757 147.941 58.5255C146.308 59.2752 144.346 59.6501 142.057 59.6501Z" fill="white"/>
<path d="M157.179 40.8324H168.085C170.32 40.8324 172.242 41.1671 173.848 41.8365C175.468 42.5059 176.713 43.4967 177.584 44.8088C178.454 46.1209 178.889 47.7342 178.889 49.6488C178.889 51.2153 178.621 52.5608 178.086 53.6855C177.564 54.7967 176.821 55.7272 175.857 56.477C174.906 57.2134 173.788 57.8025 172.503 58.2443L170.595 59.2485H161.116L161.076 54.549H168.125C169.182 54.549 170.059 54.3616 170.756 53.9867C171.452 53.6118 171.974 53.0897 172.322 52.4202C172.684 51.7508 172.864 50.9743 172.864 50.0906C172.864 49.1534 172.69 48.3434 172.342 47.6606C171.994 46.9778 171.465 46.4556 170.756 46.0941C170.046 45.7326 169.156 45.5519 168.085 45.5519H163.204V70.0732H157.179V40.8324ZM173.527 70.0732L166.859 57.0393L173.226 56.9992L179.974 69.792V70.0732H173.527Z" fill="white"/>
<path d="M203.149 65.3738V70.0732H187.585V65.3738H203.149ZM189.553 40.8324V70.0732H183.528V40.8324H189.553ZM201.121 52.7416V57.3205H187.585V52.7416H201.121ZM203.129 40.8324V45.5519H187.585V40.8324H203.129Z" fill="white"/>
<path d="M228.735 61.0961V40.8324H234.74V61.0961C234.74 63.0508 234.311 64.7311 233.455 66.1369C232.598 67.5293 231.426 68.6004 229.94 69.3502C228.467 70.1 226.807 70.4749 224.96 70.4749C223.045 70.4749 221.351 70.1535 219.879 69.5109C218.406 68.8682 217.248 67.8841 216.404 66.5587C215.561 65.2198 215.139 63.5261 215.139 61.4777H221.184C221.184 62.5488 221.331 63.3989 221.626 64.0282C221.934 64.6575 222.369 65.106 222.931 65.3738C223.493 65.6415 224.17 65.7754 224.96 65.7754C225.723 65.7754 226.385 65.5947 226.948 65.2332C227.51 64.8717 227.945 64.3428 228.253 63.6466C228.574 62.9504 228.735 62.1002 228.735 61.0961Z" fill="white"/>
<path d="M251.328 45.833L243.376 70.0732H236.969L247.834 40.8324H251.911L251.328 45.833ZM257.936 70.0732L249.963 45.833L249.32 40.8324H253.437L264.362 70.0732H257.936ZM257.574 59.1882V63.9077H242.13V59.1882H257.574ZM247.934 39.1856L251.871 33H258.157L252.634 39.1856H247.934Z" fill="white"/>
<path fill-rule="evenodd" clip-rule="evenodd" d="M52.9705 61.5156H61.2571L61.1829 62.7279C61.0518 64.8686 60.4584 66.8041 59.3836 68.5069C58.3146 70.222 56.8193 71.5515 54.9318 72.4956C53.0365 73.4503 50.8033 73.9023 48.2739 73.9023C46.2679 73.9023 44.4297 73.558 42.7796 72.8445L42.7717 72.841C41.1326 72.1175 39.7234 71.0795 38.5546 69.7332L38.5498 69.7277C37.3937 68.3789 36.5279 66.7663 35.9386 64.912C35.3483 63.0547 35.0615 61.0008 35.0615 58.762V56.7336C35.0615 54.4923 35.3556 52.4356 35.9611 50.5759L35.9628 50.5708C36.5795 48.7063 37.4655 47.0893 38.6349 45.7423L38.6396 45.7369C39.8203 44.3938 41.2344 43.3574 42.8721 42.6345C44.5213 41.9064 46.3414 41.5531 48.3141 41.5531C50.8842 41.5531 53.1334 42.0187 55.0116 43.01C56.8733 43.9856 58.3384 45.3462 59.3757 47.0889C60.4088 48.8019 61.0182 50.7362 61.2201 52.8705L61.3384 54.1206H52.9784L52.9171 53.0429C52.8564 51.9741 52.647 51.1352 52.3297 50.4899L52.3264 50.4833C52.0328 49.8764 51.6022 49.4376 51.0097 49.1365L50.9997 49.1314L50.9897 49.1261C50.4115 48.8177 49.5472 48.6178 48.3141 48.6178C47.4525 48.6178 46.7568 48.7782 46.1941 49.0595C45.6387 49.3373 45.1552 49.7647 44.746 50.3784C44.3366 50.9925 44.0005 51.8127 43.7679 52.8757C43.5479 53.9292 43.4317 55.1979 43.4317 56.6934V58.762C43.4317 60.22 43.5416 61.4748 43.7511 62.5356C43.9587 63.5732 44.2665 64.4052 44.6516 65.0576C45.0325 65.6679 45.4991 66.1067 46.0514 66.4049C46.6173 66.6903 47.3446 66.8576 48.2739 66.8576C49.4207 66.8576 50.2709 66.6732 50.8825 66.3724C51.4897 66.0738 51.9362 65.6445 52.2502 65.0656L52.2573 65.0525C52.5955 64.4478 52.8257 63.6393 52.8979 62.5803L52.9705 61.5156ZM45.5225 67.4177C44.7728 67.0161 44.1569 66.427 43.6749 65.6504C43.2063 64.8605 42.8582 63.8965 42.6306 62.7585C42.403 61.6071 42.2892 60.2749 42.2892 58.762V56.6934C42.2892 55.1403 42.4097 53.7881 42.6507 52.6367C42.905 51.4718 43.2866 50.5079 43.7954 49.7447C44.3042 48.9815 44.9334 48.4125 45.6832 48.0376C46.433 47.6628 47.3099 47.4753 48.3141 47.4753C49.6529 47.4753 50.724 47.6895 51.5273 48.118C52.344 48.533 52.9532 49.1556 53.3549 49.9857C53.7565 50.8024 53.9909 51.7999 54.0578 52.9781H60.0827C60.0459 52.589 59.9946 52.2081 59.9289 51.8356C59.66 50.3107 59.1489 48.9243 58.3957 47.6762C57.4719 46.1231 56.1665 44.9047 54.4795 44.0211C52.806 43.1374 50.7508 42.6956 48.3141 42.6956C46.4798 42.6956 44.8196 43.0236 43.3335 43.6796C41.8473 44.3357 40.5687 45.2729 39.4976 46.4913C38.4399 47.7096 37.6232 49.1891 37.0475 50.9296C36.4852 52.6567 36.204 54.5914 36.204 56.7336V58.762C36.204 60.9041 36.4785 62.8388 37.0274 64.5659C37.5764 66.2931 38.373 67.7658 39.4173 68.9842C40.475 70.2026 41.7469 71.1398 43.2331 71.7958C44.7192 72.4385 46.3995 72.7598 48.2739 72.7598C50.6705 72.7598 52.7189 72.3314 54.4193 71.4745C56.133 70.6176 57.4652 69.426 58.4158 67.8997C59.189 66.6755 59.6909 65.3091 59.9214 63.8006C59.9783 63.4284 60.0187 63.0475 60.0425 62.6581H54.0377C53.9574 63.8363 53.6963 64.8203 53.2545 65.6103C52.826 66.4002 52.2035 66.996 51.3868 67.3976C50.57 67.7993 49.5324 68.0001 48.2739 68.0001C47.2028 68.0001 46.2857 67.806 45.5225 67.4177ZM85.4208 69.6996L85.4167 69.7042C84.2074 71.061 82.7586 72.103 81.0808 72.8245C79.4085 73.5494 77.5714 73.9023 75.5868 73.9023C73.6136 73.9023 71.7778 73.5488 70.0948 72.8254L70.0914 72.8239C68.4276 72.1024 66.9814 71.0617 65.7614 69.7093L65.7573 69.7048C64.5345 68.3347 63.5994 66.6933 62.9401 64.8013L62.9375 64.794C62.2877 62.8879 61.9727 60.7654 61.9727 58.4406V57.0549C61.9727 54.7185 62.2873 52.5953 62.9379 50.7006C63.5829 48.809 64.5036 47.167 65.7125 45.7959L65.7171 45.7908C66.9372 44.4236 68.3845 43.3743 70.0512 42.6515L70.0546 42.6501C71.7376 41.9267 73.5734 41.5732 75.5466 41.5732C77.5311 41.5732 79.368 41.926 81.0403 42.6508C82.7201 43.3731 84.1695 44.423 85.3785 45.7934C86.6008 47.1638 87.5286 48.8052 88.1741 50.6968C88.8391 52.5929 89.1606 54.7176 89.1606 57.0549V58.4406C89.1606 60.7654 88.8456 62.8879 88.1958 64.794C87.5507 66.6861 86.6299 68.3283 85.4208 69.6996ZM87.0943 51.0702C86.4918 49.3029 85.6349 47.7967 84.5237 46.5515C83.4258 45.3064 82.1137 44.3558 80.5874 43.6997C79.0745 43.0437 77.3942 42.7157 75.5466 42.7157C73.7123 42.7157 72.0321 43.0437 70.5058 43.6997C68.9928 44.3558 67.6808 45.3064 66.5695 46.5515C65.4716 47.7967 64.6214 49.3029 64.019 51.0702C63.4165 52.8241 63.1152 54.819 63.1152 57.0549V58.4406C63.1152 60.6632 63.4165 62.6581 64.019 64.4254C64.6348 66.1927 65.4984 67.6989 66.6097 68.944C67.7209 70.1758 69.033 71.1197 70.5459 71.7757C72.0722 72.4318 73.7525 72.7598 75.5868 72.7598C77.4344 72.7598 79.1147 72.4318 80.6276 71.7757C82.1539 71.1197 83.466 70.1758 84.5638 68.944C85.6617 67.6989 86.5119 66.1927 87.1144 64.4254C87.7169 62.6581 88.0181 60.6632 88.0181 58.4406V57.0549C88.0181 54.819 87.7102 52.8241 87.0943 51.0702ZM77.7264 49.1495C77.1221 48.8319 76.4052 48.658 75.5466 48.658C74.688 48.658 73.9711 48.8319 73.3668 49.1495L73.3603 49.1529C72.7716 49.4573 72.2478 49.9225 71.7942 50.5847C71.3515 51.2504 70.9902 52.107 70.7334 53.183C70.4778 54.254 70.3429 55.5273 70.3429 57.0147V58.4406C70.3429 59.9132 70.4775 61.1877 70.7339 62.2745C70.99 63.3466 71.357 64.2093 71.813 64.8889C72.2659 65.5505 72.7979 66.0261 73.407 66.3461C74.0113 66.6636 74.7282 66.8376 75.5868 66.8376C76.4454 66.8376 77.1622 66.6636 77.7665 66.3461C78.3726 66.0276 78.8952 65.5556 79.3333 64.8996C79.7799 64.2174 80.1424 63.3508 80.3994 62.2745C80.6558 61.1877 80.7905 59.9132 80.7905 58.4406V57.0147C80.7905 55.5273 80.6555 54.254 80.3999 53.183C80.1435 52.1085 79.7764 51.2539 79.3228 50.5901C78.8712 49.9293 78.3426 49.4629 77.74 49.1565L77.7264 49.1495ZM81.5112 62.5376C81.2301 63.7158 80.8217 64.7132 80.2862 65.5299C79.7506 66.3332 79.0879 66.9424 78.298 67.3575C77.508 67.7725 76.6043 67.9801 75.5868 67.9801C74.5692 67.9801 73.6655 67.7725 72.8755 67.3575C72.0856 66.9424 71.4162 66.3332 70.8673 65.5299C70.3183 64.7132 69.9033 63.7158 69.6221 62.5376C69.3409 61.346 69.2004 59.9803 69.2004 58.4406V57.0147C69.2004 55.4617 69.3409 54.096 69.6221 52.9178C69.9033 51.7396 70.3116 50.7489 70.8472 49.9455C71.3961 49.1422 72.0588 48.5397 72.8354 48.1381C73.6253 47.723 74.529 47.5155 75.5466 47.5155C76.5641 47.5155 77.4679 47.723 78.2578 48.1381C79.0477 48.5397 79.7172 49.1422 80.2661 49.9455C80.815 50.7489 81.2301 51.7396 81.5112 52.9178C81.7924 54.096 81.933 55.4617 81.933 57.0147V58.4406C81.933 59.9803 81.7924 61.346 81.5112 62.5376ZM91.2135 41.9748V73.5006H99.5034V64.0186L99.2333 57.9005L104.869 73.5006H110.57L116.206 57.9005L115.936 64.0186V73.5006H124.246V41.9748H114.42L107.72 61.1263L101.019 41.9748H91.2135ZM92.356 43.1173V72.3581H98.3609V64.0438L97.7613 50.4636L105.671 72.3581H109.768L117.678 50.4636L117.078 64.0438V72.3581H123.103V43.1173H115.231L107.72 64.586L100.208 43.1173H92.356ZM134.41 57.2357H139.772C140.923 57.2357 141.861 57.0482 142.584 56.6733C143.307 56.2851 143.835 55.7495 144.17 55.0667C144.505 54.3839 144.672 53.614 144.672 52.7572C144.672 51.8869 144.505 51.0769 144.17 50.3271C143.835 49.5773 143.307 48.9749 142.584 48.5196C141.861 48.0644 140.923 47.8368 139.772 47.8368H134.41V57.2357ZM135.552 48.9793V56.0932H139.772C140.807 56.0932 141.543 55.9238 142.05 55.6628C142.576 55.3787 142.924 55.0128 143.144 54.5638C143.393 54.0564 143.53 53.462 143.53 52.7572C143.53 52.0376 143.392 51.3874 143.127 50.7928C142.888 50.2581 142.515 49.8264 141.975 49.4865C141.487 49.1794 140.781 48.9793 139.772 48.9793H135.552ZM134.41 61.9351H139.772C142.061 61.9351 144.023 61.5602 145.656 60.8104C147.303 60.0607 148.562 58.9963 149.432 57.6172C150.302 56.2382 150.737 54.6048 150.737 52.717C150.737 50.856 150.302 49.2025 149.432 47.7565C148.562 46.3105 147.303 45.1792 145.656 44.3625C144.023 43.5324 142.061 43.1173 139.772 43.1173H128.385V72.3581H134.41V61.9351ZM135.552 63.0776V73.5006H127.242V41.9748H139.772C142.195 41.9748 144.341 42.4137 146.169 43.3414C147.991 44.2458 149.419 45.5195 150.411 47.1673C151.399 48.8091 151.88 50.6703 151.88 52.717C151.88 54.7859 151.401 56.6381 150.398 58.227C149.396 59.8142 147.957 61.018 146.131 61.8495C144.314 62.6835 142.182 63.0776 139.772 63.0776H135.552ZM153.752 41.9748H165.8C168.144 41.9748 170.221 42.3251 172 43.0658C173.806 43.812 175.241 44.9395 176.251 46.4622C177.27 47.9986 177.747 49.8435 177.747 51.9337C177.747 53.6272 177.457 55.1485 176.833 56.4606C176.235 57.732 175.379 58.8039 174.273 59.6638L174.271 59.6652C173.845 59.9953 173.391 60.2969 172.911 60.5705L178.831 71.7941V73.5006H170.543L165.006 62.6759H162.062V73.5006H153.752V41.9748ZM160.919 61.5334H165.705L171.242 72.3581H177.689V72.077L171.36 60.0783C171.714 59.9186 172.053 59.7456 172.378 59.5594C172.801 59.3162 173.199 59.0504 173.572 58.762C174.536 58.0122 175.279 57.0817 175.801 55.9704C176.336 54.8458 176.604 53.5002 176.604 51.9337C176.604 50.0192 176.169 48.4058 175.299 47.0937C174.429 45.7817 173.183 44.7909 171.563 44.1215C169.957 43.452 168.035 43.1173 165.8 43.1173H154.894V72.3581H160.919V61.5334ZM165.84 56.834C166.897 56.834 167.774 56.6466 168.471 56.2717C169.167 55.8968 169.689 55.3746 170.037 54.7052C170.399 54.0358 170.579 53.2592 170.579 52.3756C170.579 51.4384 170.405 50.6284 170.057 49.9455C169.709 49.2627 169.18 48.7406 168.471 48.3791C167.761 48.0176 166.871 47.8368 165.8 47.8368H160.919V56.834H165.84ZM162.062 55.6915H165.84C166.77 55.6915 167.446 55.5258 167.929 55.2657C168.434 54.994 168.786 54.6341 169.023 54.1781L169.027 54.1702L169.032 54.1623C169.29 53.6848 169.437 53.1005 169.437 52.3756C169.437 51.5792 169.289 50.9546 169.039 50.4644C168.805 50.0053 168.456 49.6536 167.952 49.3971C167.449 49.1407 166.75 48.9793 165.8 48.9793H162.062V55.6915ZM202.007 66.5162V73.5006H180.101V41.9748H201.987V48.9793H188.411V53.884H199.979V60.7479H188.411V66.5162H202.007ZM187.268 67.6587H200.864V72.3581H181.243V43.1173H200.844V47.8368H187.268V55.0265H198.836V59.6054H187.268V67.6587ZM225.308 41.9748H233.597V63.381C233.597 65.5059 233.13 67.4005 232.145 69.0165L232.143 69.0207C231.173 70.5958 229.843 71.8106 228.172 72.6538C226.521 73.4942 224.68 73.9023 222.675 73.9023C220.632 73.9023 218.778 73.5594 217.137 72.843C215.461 72.1116 214.124 70.9789 213.155 69.457L213.153 69.4526C212.165 67.8849 211.711 65.9641 211.711 63.7626V62.6201H220.041V63.7626C220.041 64.7409 220.178 65.4012 220.371 65.8196C220.58 66.2423 220.839 66.4851 221.137 66.6272C221.511 66.805 222.01 66.9179 222.675 66.9179C223.25 66.9179 223.692 66.784 224.045 66.5571C224.394 66.3327 224.693 65.9904 224.923 65.4694L224.927 65.4611L224.931 65.4528C225.165 64.9456 225.308 64.2688 225.308 63.381V41.9748ZM219.341 66.3132C219.046 65.6839 218.899 64.8337 218.899 63.7626H212.854C212.854 64.1566 212.87 64.5374 212.901 64.9051C213.032 66.4494 213.438 67.7622 214.119 68.8436C214.963 70.1691 216.121 71.1532 217.594 71.7958C219.066 72.4385 220.76 72.7598 222.675 72.7598C224.522 72.7598 226.182 72.3849 227.655 71.6352C229.141 70.8854 230.313 69.8143 231.17 68.4219C232.026 67.0161 232.455 65.3358 232.455 63.381V43.1173H226.45V63.381C226.45 64.3852 226.289 65.2354 225.968 65.9316C225.66 66.6278 225.225 67.1566 224.663 67.5181C224.1 67.8796 223.438 68.0604 222.675 68.0604C221.885 68.0604 221.208 67.9265 220.646 67.6587C220.084 67.391 219.649 66.9424 219.341 66.3132ZM245.549 43.1173H251.152L262.077 72.3581H255.651L253.623 66.1927H243.113L241.091 72.3581H234.684L245.549 43.1173ZM244.662 61.4732H252.071L248.362 50.1966L244.662 61.4732ZM246.239 60.3307H250.492L248.363 53.8573L246.239 60.3307ZM243.941 67.3352L241.918 73.5006H233.041L244.518 42.613H243.568L248.959 34.1425H258.423L251.43 41.9748H251.945L263.724 73.5006H254.824L252.796 67.3352H243.941ZM250.349 41.4705L255.872 35.285H249.586L245.649 41.4705H250.349Z" fill="white"/>
</svg>
