<svg width="722" height="414" viewBox="0 0 722 414" fill="none" xmlns="http://www.w3.org/2000/svg">
<path d="M106.762 145.809C105.501 154.783 100.308 161.476 93.048 162.736C92.0897 162.903 91.1053 162.934 90.121 162.965L99.3658 103.325C99.8241 100.278 99.8918 96.5955 99.4126 93.856C96.3814 76.4497 79.798 69.5955 65.4126 72.1007C60.4751 72.9601 56.3762 75.3664 52.4022 79.3039C51.4491 77.0695 46.1783 75.1632 41.1053 76.0487C36.5845 76.8351 32.3033 79.8403 31.2355 86.6632L14.0064 190.476C13.6314 192.377 13.621 193.929 13.8814 195.439C15.048 202.153 21.6835 205.377 27.7147 204.325C32.1001 203.564 36.2147 200.445 37.6626 194.971C43.7303 198.997 52.4387 198.752 56.1418 198.106C66.5533 196.293 77.0793 190.226 83.6574 180.184C87.0272 180.872 90.5741 180.96 94.6835 180.241C110.855 177.429 122.35 163.991 123.829 146.507C123.96 145.637 123.814 144.814 123.673 143.991C122.835 139.195 118.433 137.424 114.324 138.137C110.621 138.783 107.256 141.346 106.762 145.809ZM42.7928 151.434L49.5637 110.861C52.1522 98.1268 58.5897 93.7622 64.897 92.6632C70.3762 91.7101 75.4283 94.783 76.4803 100.814C76.7668 102.455 76.6626 104.309 76.4491 106.325L69.1939 153.054C63.4803 150.236 57.0845 148.382 48.5897 149.861C46.5324 150.221 44.5012 150.715 42.7928 151.434ZM52.4491 180.96C47.3762 181.84 44.0689 179.877 43.522 176.726C42.7564 172.34 46.6626 167.986 52.2772 167.012C57.0741 166.174 61.3658 168.111 65.5012 170.778C62.5481 176.517 57.246 180.127 52.4491 180.96Z" fill="#FD6155" fill-opacity="0.302"/>
<path d="M171.616 136.352C168.355 153.3 155.084 162.248 143.439 164.274C133.433 166.013 126.293 162.315 125.199 156.013C124.985 154.779 124.907 153.524 125.215 152.055L125.86 149.263C130.262 151.034 135.48 151.821 140.965 150.867C153.433 148.696 163.038 138.977 164.59 125.998C164.824 123.274 164.782 120.602 164.376 118.268C162.11 105.253 150.09 97.0341 134.605 99.732C122.407 101.857 111.725 111.055 109.314 125.597L105.308 150.44C104.782 153.919 104.673 157.326 105.22 160.477C108.058 176.784 125.173 184.258 145.178 180.774C164.23 177.456 184.262 164.367 188.751 136.617C188.97 135.451 188.939 134.466 188.798 133.643C188.058 129.399 183.814 127.737 179.704 128.451C175.866 129.117 172.11 131.888 171.616 136.352ZM137.006 115.977C140.845 115.305 143.86 118.029 144.553 122.003C144.741 123.102 144.798 124.222 144.574 125.388C143.991 130.149 140.168 132.508 136.058 133.227C133.454 133.68 130.756 133.581 128.647 132.821L130.09 124.097C130.86 119.586 133.855 116.524 137.006 115.977Z" fill="#FD6155" fill-opacity="0.302"/>
<path d="M239.98 124.316C238.094 132.972 234.276 139.425 228.62 144.222C228.584 142.394 228.568 140.701 228.261 138.92C226.875 130.972 221.318 124.175 216.36 118.399C212.808 114.217 209.256 110.034 207.964 105.883C211.516 103.571 213.766 98.6595 213.052 94.5501C212.026 88.6542 206.552 83.9615 199.698 85.1542C194.49 86.0605 189.735 89.5709 188.063 95.3678C184.532 106.712 180.61 118.269 176.917 129.503C168.141 133.43 165.433 144.633 166.959 153.404C169.297 166.831 184.542 174.909 208.797 170.686C232.641 166.534 252.448 153.769 257.224 124.42C257.401 123.821 257.282 123.139 257.188 122.587C256.495 118.613 251.469 116.524 247.084 117.29C243.797 117.857 240.792 120.076 239.98 124.316ZM195.891 128.175L196.672 125.357C201.641 129.576 206.073 135.581 207.198 142.019C208.318 148.462 205.823 154.404 198.605 155.941C193.948 156.753 189.48 155.415 187.349 152.113C188.495 152.196 189.589 152.003 190.547 151.837C198.5 150.456 201.99 142.93 200.818 136.212C200.271 133.06 198.625 130.097 195.891 128.175Z" fill="#FD6155" fill-opacity="0.302"/>
<path d="M301.587 111.61C297.676 130.506 285.525 139.402 275.113 141.214C265.655 142.86 258.671 138.428 257.457 131.438C257.191 129.928 257.181 128.235 257.421 126.36L261.65 101.199C262.311 97.6936 264.697 95.1624 266.889 94.777C269.629 94.303 271.285 95.7093 271.691 98.0374C271.952 99.5426 271.691 101.287 271.066 103.371C270.619 104.86 270.447 106.303 270.686 107.673C271.52 112.47 276.686 115.381 281.483 114.548C285.457 113.855 289.275 110.647 290.645 103.918C291.374 99.9749 291.348 96.5947 290.801 93.4384C288.556 80.5582 276.577 75.0166 264.796 77.0686C253.967 78.9541 243.415 87.2874 240.988 102.537L237.181 126.918C236.66 130.397 236.681 133.782 237.207 136.798C239.952 152.558 255.634 161.548 275.78 158.037C296.061 154.511 314.066 139.517 318.499 113.048C318.744 112.017 318.712 111.032 318.566 110.209C317.806 105.824 313.082 103.824 308.832 104.563C305.405 105.157 302.264 107.402 301.587 111.61Z" fill="#FD6155" fill-opacity="0.302"/>
<path d="M375.209 99.786C371.902 117.307 365.584 125.604 359.277 126.703C356.813 127.135 354.928 126.046 354.595 124.13C354.501 123.583 354.496 122.734 354.647 122.005L362.99 73.3901C363.298 71.9266 363.22 70.6662 363.006 69.437C362.053 63.9526 356.61 61.088 351.678 61.9474C347.704 62.6401 343.996 65.6818 342.944 71.7964L335.194 116.494C332.668 124.697 327.897 132.166 322.412 133.119C320.36 133.479 319.022 132.296 318.668 130.244C318.475 129.145 318.438 127.317 318.61 125.874L326.105 80.5151C326.392 78.9162 326.428 77.4943 326.188 76.1245C325.209 70.5047 319.61 67.5307 314.537 68.411C310.704 69.0776 306.996 72.1245 306.032 77.9422L298.131 127.463C297.74 130.072 297.756 132.609 298.162 134.942C300.095 146.041 310.454 152.005 321.964 150C330.188 148.567 335.662 143.52 339.777 137.156C344.777 142.359 352.798 144.635 361.022 143.203C374.043 140.937 387.569 130.25 392.339 100.052C392.47 99.1818 392.464 98.338 392.319 97.5151C391.558 93.1297 386.99 91.2391 382.746 91.9787C379.183 92.5985 375.813 95.161 375.209 99.786Z" fill="#FD6155" fill-opacity="0.302"/>
<path d="M444.294 83.8087C442.799 92.2566 437.491 98.2618 430.231 99.5274L429.544 99.6472L432.799 81.8556C433.528 77.9181 433.57 74.0951 432.997 70.8087C430.658 57.3764 418.965 50.2358 406.908 52.3347C404.575 52.741 402.57 53.3712 400.497 54.4389L404.939 27.2618C405.179 25.3816 405.33 23.8035 405.064 22.2983C404.064 16.5431 398.83 14.0639 394.033 14.8972C389.788 15.6368 386.127 18.9545 385.189 24.9077C380.33 55.4077 375.981 79.8868 371.643 106.902C371.007 110.543 371.012 114.637 371.564 117.788C374.163 132.725 387.882 138.527 401.585 136.142C411.59 134.402 422.023 128.632 426.007 116.642C427.7 116.632 429.502 116.455 431.283 116.147C445.814 113.616 458.971 102.434 461.189 85.9493C461.32 85.0795 461.335 84.3712 461.215 83.6837C460.429 79.1629 455.132 77.1212 450.611 77.9076C447.596 78.4337 444.82 80.3295 444.294 83.8087ZM407.075 110.902L406.991 112.043C406.132 116.85 402.309 119.215 398.747 119.835C394.773 120.527 391.788 118.788 391.116 114.949C390.903 113.715 390.804 112.319 391.09 110.72C393.002 99.7931 394.512 90.6368 396.262 79.6004C398.122 74.0535 401.908 69.866 405.882 69.1733C409.445 68.5535 412.32 70.4545 412.913 73.8764C413.08 74.8399 413.137 75.9597 412.913 77.1264L411.471 85.8504C410.601 85.7202 411.606 85.8243 410.648 85.991C403.929 87.1629 399.538 93.5743 400.757 100.564C401.45 104.538 403.627 108.111 407.075 110.902Z" fill="#FD6155" fill-opacity="0.302"/>
<path d="M508.412 76.5981C505.542 90.9366 500.297 102.155 494.537 103.161C492.62 103.494 491.349 101.879 491.016 99.9575C490.875 99.1398 490.818 98.02 491.042 96.8481L495.214 72.9679C495.557 70.0825 495.677 67.52 495.271 65.1919C493.005 52.171 475.604 49.5512 467.526 48.5564C467.745 47.3898 467.667 46.1346 467.479 45.0356C466.38 38.7335 459.833 34.3689 453.667 35.4419C445.578 36.8481 442.021 44.8064 443.38 52.6189C443.979 56.046 445.833 59.395 448.5 61.7544L443.198 90.4939C443.115 91.6346 443.167 92.7596 443.313 93.5773C444.099 98.1033 448.068 99.8116 451.906 99.145C455.74 98.4731 459.333 95.5929 460.214 90.921L464.313 69.0252C468.365 69.5929 473.599 69.671 474.412 74.3273C474.531 75.0148 474.537 75.8585 474.432 76.8689L471.313 94.6346C470.766 97.9783 470.714 100.952 471.193 103.692C473.271 115.614 484.083 121.78 495.458 119.801C510.396 117.202 521.651 101.546 525.703 76.9783C525.833 76.1085 525.854 75.4002 525.734 74.7127C525.016 70.6033 520.021 68.6502 515.636 69.4106C512.068 70.0304 508.932 72.2752 508.412 76.5981Z" fill="#FD6155" fill-opacity="0.302"/>
<path d="M588.534 55.8775C584.696 56.5441 580.852 59.6118 580.118 65.1066C577.706 82.8931 570.05 90.0129 563.883 91.091C561.55 91.4921 559.967 90.4973 559.586 88.3046C559.394 87.2108 559.43 85.7941 559.581 84.2108L567.201 37.1379C567.461 35.3983 567.472 33.8462 567.232 32.4712C566.185 26.4452 560.701 24.1483 555.633 25.0337C551.795 25.7004 548.128 28.1743 546.534 31.9816C543.347 30.7004 537.644 29.5754 530.654 30.7941C521.607 32.3671 512.602 39.0181 510.737 50.216L504.274 89.3202C503.878 91.9296 503.758 94.4921 504.19 96.9608C506.17 108.336 516.972 116.055 529.034 113.956C535.477 112.836 541.55 108.815 545.836 103.409C551.315 108.95 561.237 108.351 565.352 107.638C576.727 105.654 590.935 97.2525 595.842 73.5233C596.831 67.8462 597.743 64.1587 597.31 61.69C596.498 57.0285 592.508 55.1848 588.534 55.8775ZM543.071 62.3775L540.045 83.94C538.717 93.3514 533.868 96.315 530.993 96.815C527.977 97.341 526.133 95.6848 525.586 92.5285C525.274 90.7473 525.399 89.0337 525.597 87.7264L529.576 58.6535C530.722 49.841 534.368 48.0806 536.56 47.6952C539.164 47.2421 542.498 49.3462 543.305 54.0077C543.664 56.0598 543.571 58.7629 543.071 62.3775Z" fill="#FD6155" fill-opacity="0.302"/>
<path d="M100.262 138.558C99.0014 147.532 93.8087 154.225 86.5483 155.485C85.59 155.652 84.6056 155.683 83.6212 155.715L92.866 96.074C93.3243 93.0272 93.392 89.3449 92.9129 86.6053C89.8816 69.199 73.2983 62.3449 58.9129 64.8501C53.9754 65.7095 49.8764 68.1157 45.9025 72.0532C44.9493 69.8188 39.6785 67.9126 34.6056 68.798C30.0848 69.5845 25.8035 72.5897 24.7358 79.4126L7.50663 183.225C7.13163 185.126 7.12121 186.678 7.38163 188.189C8.54829 194.902 15.1837 198.126 21.215 197.074C25.6004 196.314 29.715 193.194 31.1629 187.72C37.2306 191.746 45.9389 191.501 49.642 190.855C60.0535 189.043 70.5795 182.975 77.1577 172.933C80.5275 173.621 84.0743 173.709 88.1837 172.991C104.356 170.178 115.85 156.741 117.33 139.256C117.46 138.387 117.314 137.564 117.173 136.741C116.335 131.944 111.934 130.173 107.824 130.887C104.121 131.532 100.757 134.095 100.262 138.558ZM36.2931 144.183L43.0639 103.61C45.6525 90.8761 52.09 86.5115 58.3973 85.4126C63.8764 84.4595 68.9285 87.5324 69.9806 93.5636C70.267 95.2042 70.1629 97.0584 69.9493 99.074L62.6941 145.803C56.9806 142.985 50.5848 141.131 42.09 142.61C40.0327 142.97 38.0014 143.465 36.2931 144.183ZM45.9493 173.709C40.8764 174.59 37.5691 172.626 37.0223 169.475C36.2566 165.09 40.1629 160.735 45.7775 159.762C50.5743 158.923 54.866 160.86 59.0014 163.527C56.0483 169.267 50.7462 172.876 45.9493 173.709Z" fill="#FD6155" fill-opacity="0.502"/>
<path d="M165.116 129.101C161.855 146.049 148.584 154.997 136.939 157.023C126.933 158.763 119.793 155.065 118.699 148.763C118.485 147.528 118.407 146.273 118.715 144.804L119.36 142.013C123.762 143.783 128.98 144.57 134.465 143.617C146.933 141.445 156.538 131.726 158.09 118.747C158.324 116.023 158.282 113.351 157.876 111.018C155.61 98.0021 143.59 89.7834 128.105 92.4813C115.907 94.6063 105.225 103.804 102.814 118.346L98.8084 143.19C98.2824 146.669 98.173 150.075 98.7199 153.226C101.558 169.533 118.673 177.007 138.678 173.523C157.73 170.205 177.762 157.117 182.251 129.367C182.47 128.2 182.439 127.216 182.298 126.393C181.558 122.148 177.314 120.487 173.204 121.2C169.366 121.867 165.61 124.638 165.116 129.101ZM130.506 108.726C134.345 108.054 137.36 110.778 138.053 114.752C138.241 115.851 138.298 116.971 138.074 118.138C137.491 122.898 133.668 125.257 129.558 125.976C126.954 126.429 124.256 126.33 122.147 125.57L123.59 116.846C124.36 112.335 127.355 109.273 130.506 108.726Z" fill="#FD6155" fill-opacity="0.502"/>
<path d="M233.48 117.065C231.594 125.721 227.777 132.174 222.12 136.971C222.084 135.143 222.068 133.45 221.761 131.669C220.376 123.721 214.818 116.924 209.86 111.148C206.308 106.966 202.756 102.784 201.464 98.6327C205.016 96.3202 207.266 91.4087 206.553 87.2993C205.527 81.4035 200.053 76.7108 193.199 77.9035C187.99 78.8098 183.235 82.3202 181.563 88.1171C178.032 99.4608 174.11 111.018 170.417 122.252C161.641 126.18 158.933 137.383 160.459 146.154C162.798 159.581 178.042 167.659 202.298 163.435C226.141 159.284 245.949 146.518 250.725 117.169C250.902 116.57 250.782 115.888 250.688 115.336C249.995 111.362 244.969 109.273 240.584 110.039C237.298 110.607 234.292 112.825 233.48 117.065ZM189.391 120.924L190.173 118.107C195.141 122.325 199.574 128.331 200.699 134.768C201.818 141.211 199.324 147.154 192.105 148.69C187.449 149.502 182.98 148.164 180.85 144.862C181.995 144.945 183.089 144.752 184.048 144.586C192.001 143.206 195.49 135.68 194.318 128.961C193.771 125.81 192.126 122.846 189.391 120.924Z" fill="#FD6155" fill-opacity="0.502"/>
<path d="M295.087 104.36C291.176 123.255 279.025 132.151 268.613 133.964C259.155 135.61 252.171 131.177 250.957 124.188C250.691 122.677 250.681 120.985 250.921 119.11L255.15 93.9481C255.811 90.4429 258.197 87.9117 260.389 87.5262C263.129 87.0523 264.785 88.4585 265.191 90.7867C265.452 92.2919 265.191 94.0367 264.566 96.12C264.119 97.6096 263.947 99.0523 264.186 100.422C265.02 105.219 270.186 108.13 274.983 107.297C278.957 106.604 282.775 103.396 284.145 96.6669C284.874 92.7242 284.848 89.3439 284.301 86.1877C282.056 73.3075 270.077 67.7658 258.296 69.8179C247.467 71.7033 236.915 80.0367 234.488 95.2867L230.681 119.667C230.16 123.146 230.181 126.531 230.707 129.547C233.452 145.307 249.134 154.297 269.28 150.787C289.561 147.261 307.566 132.266 311.999 105.797C312.244 104.766 312.212 103.781 312.066 102.959C311.306 98.5731 306.582 96.5731 302.332 97.3127C298.905 97.9064 295.764 100.151 295.087 104.36Z" fill="#FD6155" fill-opacity="0.502"/>
<path d="M368.709 92.5353C365.402 110.056 359.084 118.353 352.777 119.452C350.314 119.884 348.428 118.796 348.095 116.879C348.001 116.332 347.996 115.483 348.147 114.754L356.491 66.1395C356.798 64.6759 356.72 63.4155 356.506 62.1863C355.553 56.702 350.111 53.8374 345.178 54.6967C341.204 55.3895 337.496 58.4311 336.444 64.5457L328.694 109.244C326.168 117.447 321.397 124.915 315.913 125.869C313.861 126.228 312.522 125.046 312.168 122.994C311.975 121.895 311.939 120.067 312.111 118.624L319.605 73.2645C319.892 71.6655 319.928 70.2436 319.689 68.8738C318.709 63.254 313.111 60.2801 308.038 61.1603C304.204 61.827 300.496 64.8738 299.532 70.6915L291.631 120.212C291.241 122.822 291.256 125.358 291.663 127.692C293.595 138.79 303.954 144.754 315.465 142.749C323.689 141.317 329.163 136.27 333.277 129.905C338.277 135.108 346.298 137.384 354.522 135.952C367.543 133.686 381.069 122.999 385.84 92.8009C385.97 91.9311 385.965 91.0874 385.819 90.2645C385.058 85.879 380.491 83.9884 376.246 84.728C372.683 85.3478 369.314 87.9103 368.709 92.5353Z" fill="#FD6155" fill-opacity="0.502"/>
<path d="M437.794 76.558C436.299 85.0059 430.991 91.0111 423.731 92.2768L423.044 92.3966L426.299 74.6049C427.028 70.6674 427.07 66.8445 426.497 63.558C424.158 50.1257 412.465 42.9851 400.408 45.0841C398.075 45.4903 396.07 46.1205 393.997 47.1882L398.439 20.0111C398.679 18.1309 398.83 16.5528 398.564 15.0476C397.564 9.2924 392.33 6.81323 387.533 7.64656C383.288 8.38615 379.627 11.7039 378.689 17.657C373.83 48.157 369.481 72.6362 365.143 99.6518C364.507 103.292 364.512 107.386 365.064 110.537C367.663 125.475 381.382 131.277 395.085 128.891C405.09 127.152 415.523 121.381 419.507 109.391C421.2 109.381 423.002 109.204 424.783 108.897C439.314 106.365 452.471 95.183 454.689 78.6986C454.82 77.8289 454.835 77.1205 454.715 76.433C453.929 71.9122 448.632 69.8705 444.111 70.657C441.096 71.183 438.32 73.0789 437.794 76.558ZM400.575 103.652L400.491 104.792C399.632 109.6 395.809 111.964 392.247 112.584C388.273 113.277 385.288 111.537 384.616 107.699C384.403 106.464 384.304 105.068 384.59 103.469C386.502 92.5424 388.012 83.3861 389.762 72.3497C391.622 66.8028 395.408 62.6153 399.382 61.9226C402.945 61.3028 405.82 63.2039 406.413 66.6257C406.58 67.5893 406.637 68.7091 406.413 69.8757L404.971 78.5997C404.101 78.4695 405.106 78.5736 404.148 78.7403C397.429 79.9122 393.038 86.3237 394.257 93.3132C394.95 97.2872 397.127 100.86 400.575 103.652Z" fill="#FD6155" fill-opacity="0.502"/>
<path d="M501.912 69.3474C499.042 83.6859 493.797 94.9047 488.037 95.9099C486.12 96.2432 484.849 94.6286 484.516 92.7067C484.375 91.889 484.318 90.7692 484.542 89.5974L488.714 65.7172C489.058 62.8317 489.177 60.2692 488.771 57.9411C486.506 44.9203 469.105 42.3005 461.026 41.3057C461.245 40.139 461.167 38.8838 460.98 37.7849C459.881 31.4828 453.334 27.1182 447.167 28.1911C439.078 29.5974 435.521 37.5557 436.881 45.3682C437.48 48.7953 439.334 52.1442 442 54.5036L436.698 83.2432C436.615 84.3838 436.667 85.5088 436.813 86.3265C437.599 90.8526 441.568 92.5609 445.407 91.8942C449.24 91.2224 452.834 88.3422 453.714 83.6703L457.813 61.7745C461.865 62.3422 467.099 62.4203 467.912 67.0765C468.032 67.764 468.037 68.6078 467.933 69.6182L464.813 87.3838C464.266 90.7276 464.214 93.7015 464.693 96.4411C466.771 108.363 477.584 114.53 488.959 112.55C503.896 109.952 515.151 94.2953 519.203 69.7276C519.334 68.8578 519.355 68.1495 519.235 67.462C518.516 63.3526 513.521 61.3995 509.136 62.1599C505.568 62.7797 502.433 65.0245 501.912 69.3474Z" fill="#FD6155" fill-opacity="0.502"/>
<path d="M582.034 48.6268C578.196 49.2935 574.352 52.3612 573.618 57.856C571.206 75.6424 563.55 82.7622 557.383 83.8403C555.05 84.2414 553.467 83.2466 553.087 81.0539C552.894 79.9601 552.93 78.5435 553.081 76.9601L560.701 29.8872C560.962 28.1476 560.972 26.5955 560.732 25.2205C559.686 19.1945 554.201 16.8976 549.133 17.783C545.295 18.4497 541.628 20.9237 540.034 24.731C536.847 23.4497 531.144 22.3247 524.154 23.5435C515.107 25.1164 506.102 31.7674 504.238 42.9653L497.774 82.0695C497.378 84.6789 497.258 87.2414 497.691 89.7101C499.67 101.085 510.472 108.804 522.534 106.705C528.977 105.585 535.05 101.564 539.337 96.1581C544.816 101.7 554.738 101.101 558.852 100.387C570.227 98.4028 584.436 90.0018 589.342 66.2726C590.331 60.5956 591.243 56.908 590.811 54.4393C589.998 49.7778 586.008 47.9341 582.034 48.6268ZM536.571 55.1268L533.545 76.6893C532.217 86.1008 527.368 89.0643 524.493 89.5643C521.477 90.0903 519.633 88.4341 519.087 85.2778C518.774 83.4966 518.899 81.7831 519.097 80.4758L523.076 51.4028C524.222 42.5903 527.868 40.8299 530.061 40.4445C532.665 39.9914 535.998 42.0955 536.805 46.757C537.165 48.8091 537.071 51.5122 536.571 55.1268Z" fill="#FD6155" fill-opacity="0.502"/>
<path d="M93.7621 131.308C92.5017 140.282 87.309 146.974 80.0485 148.235C79.0902 148.401 78.1058 148.433 77.1215 148.464L86.3662 88.8233C86.8246 85.7764 86.8923 82.0941 86.4131 79.3546C83.3819 61.9483 66.7985 55.0941 52.4131 57.5993C47.4756 58.4587 43.3767 60.865 39.4027 64.8025C38.4496 62.5681 33.1787 60.6618 28.1058 61.5473C23.585 62.3337 19.3037 65.3389 18.236 72.1618L1.00687 175.974C0.631871 177.875 0.621453 179.427 0.881871 180.938C2.04854 187.651 8.68395 190.875 14.7152 189.823C19.1006 189.063 23.2152 185.943 24.6631 180.469C30.7308 184.495 39.4392 184.25 43.1423 183.605C53.5537 181.792 64.0798 175.724 70.6579 165.683C74.0277 166.37 77.5746 166.459 81.684 165.74C97.8558 162.927 109.351 149.49 110.83 132.006C110.96 131.136 110.814 130.313 110.674 129.49C109.835 124.693 105.434 122.922 101.325 123.636C97.6215 124.282 94.2569 126.844 93.7621 131.308ZM29.7933 136.933L36.5642 96.3598C39.1527 83.6254 45.5902 79.2608 51.8975 78.1618C57.3767 77.2087 62.4287 80.2816 63.4808 86.3129C63.7673 87.9535 63.6631 89.8077 63.4496 91.8233L56.1944 138.552C50.4808 135.735 44.085 133.881 35.5902 135.36C33.5329 135.719 31.5017 136.214 29.7933 136.933ZM39.4496 166.459C34.3767 167.339 31.0694 165.375 30.5225 162.224C29.7569 157.839 33.6631 153.485 39.2777 152.511C44.0746 151.672 48.3662 153.61 52.5017 156.276C49.5485 162.016 44.2465 165.625 39.4496 166.459Z" fill="white"/>
<path d="M158.616 121.85C155.356 138.798 142.085 147.746 130.439 149.772C120.434 151.512 113.293 147.814 112.199 141.512C111.986 140.278 111.908 139.022 112.215 137.554L112.861 134.762C117.262 136.533 122.481 137.319 127.965 136.366C140.434 134.194 150.038 124.475 151.59 111.496C151.824 108.772 151.783 106.1 151.376 103.767C149.111 90.7515 137.09 82.5327 121.606 85.2306C109.408 87.3556 98.7253 96.5536 96.3139 111.095L92.3087 135.939C91.7826 139.418 91.6732 142.824 92.2201 145.975C95.0587 162.283 112.173 169.757 132.178 166.272C151.231 162.955 171.262 149.866 175.751 122.116C175.97 120.949 175.939 119.965 175.798 119.142C175.059 114.897 170.814 113.236 166.704 113.949C162.866 114.616 159.111 117.387 158.616 121.85ZM124.007 101.475C127.845 100.804 130.861 103.528 131.553 107.501C131.741 108.6 131.798 109.72 131.574 110.887C130.991 115.647 127.168 118.007 123.059 118.725C120.454 119.179 117.757 119.08 115.647 118.319L117.09 109.595C117.861 105.085 120.856 102.022 124.007 101.475Z" fill="white"/>
<path d="M226.98 109.814C225.094 118.471 221.277 124.924 215.62 129.721C215.584 127.892 215.568 126.2 215.261 124.418C213.876 116.471 208.318 109.674 203.36 103.898C199.808 99.7153 196.256 95.5331 194.964 91.382C198.516 89.0695 200.766 84.1581 200.053 80.0487C199.027 74.1528 193.553 69.4601 186.699 70.6528C181.49 71.5591 176.735 75.0695 175.063 80.8664C171.532 92.2101 167.61 103.767 163.917 115.002C155.141 118.929 152.433 130.132 153.959 138.903C156.298 152.33 171.542 160.408 195.798 156.184C219.641 152.033 239.449 139.267 244.225 109.918C244.402 109.32 244.282 108.637 244.188 108.085C243.495 104.111 238.469 102.023 234.084 102.788C230.798 103.356 227.792 105.575 226.98 109.814ZM182.891 113.674L183.673 110.856C188.641 115.075 193.074 121.08 194.199 127.517C195.318 133.96 192.824 139.903 185.605 141.439C180.949 142.252 176.48 140.913 174.35 137.611C175.495 137.695 176.589 137.502 177.548 137.335C185.501 135.955 188.99 128.429 187.818 121.71C187.271 118.559 185.626 115.596 182.891 113.674Z" fill="white"/>
<path d="M288.588 97.1089C284.676 116.005 272.525 124.901 262.114 126.713C252.655 128.359 245.671 123.927 244.457 116.937C244.192 115.427 244.181 113.734 244.421 111.859L248.65 86.6974C249.311 83.1922 251.697 80.661 253.89 80.2756C256.629 79.8016 258.285 81.2079 258.692 83.536C258.952 85.0412 258.692 86.786 258.067 88.8693C257.619 90.3589 257.447 91.8016 257.686 93.1714C258.52 97.9683 263.686 100.88 268.483 100.046C272.457 99.3537 276.275 96.1454 277.645 89.4162C278.374 85.4735 278.348 82.0933 277.801 78.937C275.556 66.0568 263.577 60.5152 251.796 62.5672C240.968 64.4526 230.416 72.786 227.989 88.036L224.181 112.416C223.66 115.895 223.681 119.281 224.207 122.296C226.952 138.057 242.634 147.046 262.78 143.536C283.061 140.01 301.067 125.015 305.499 98.5464C305.744 97.5152 305.713 96.5308 305.567 95.7079C304.806 91.3224 300.082 89.3224 295.832 90.062C292.405 90.6558 289.265 92.9006 288.588 97.1089Z" fill="white"/>
<path d="M362.21 85.2846C358.902 102.805 352.585 111.102 346.277 112.201C343.814 112.634 341.928 111.545 341.595 109.628C341.501 109.081 341.496 108.232 341.647 107.503L349.991 58.8887C350.298 57.4252 350.22 56.1648 350.007 54.9356C349.053 49.4512 343.611 46.5866 338.678 47.446C334.705 48.1387 330.996 51.1804 329.944 57.295L322.194 101.993C319.668 110.196 314.897 117.665 309.413 118.618C307.361 118.977 306.022 117.795 305.668 115.743C305.475 114.644 305.439 112.816 305.611 111.373L313.106 66.0137C313.392 64.4148 313.428 62.9929 313.189 61.6231C312.21 56.0033 306.611 53.0293 301.538 53.9096C297.705 54.5762 293.996 57.6231 293.033 63.4408L285.132 112.962C284.741 115.571 284.757 118.107 285.163 120.441C287.095 131.54 297.455 137.503 308.965 135.498C317.189 134.066 322.663 129.019 326.777 122.654C331.777 127.857 339.798 130.134 348.022 128.701C361.043 126.436 374.569 115.748 379.34 85.5502C379.47 84.6804 379.465 83.8366 379.319 83.0137C378.559 78.6283 373.991 76.7377 369.746 77.4773C366.184 78.0971 362.814 80.6596 362.21 85.2846Z" fill="white"/>
<path d="M431.294 69.3073C429.799 77.7552 424.492 83.7604 417.231 85.026L416.544 85.1458L419.799 67.3542C420.528 63.4167 420.57 59.5937 419.997 56.3073C417.658 42.875 405.966 35.7344 393.908 37.8333C391.575 38.2396 389.57 38.8698 387.497 39.9375L391.94 12.7604C392.179 10.8802 392.33 9.30208 392.065 7.79687C391.065 2.04166 385.83 -0.437503 381.033 0.395831C376.789 1.13541 373.127 4.45312 372.19 10.4062C367.33 40.9062 362.981 65.3854 358.643 92.401C358.007 96.0417 358.013 100.135 358.565 103.286C361.164 118.224 374.882 124.026 388.585 121.641C398.591 119.901 409.023 114.13 413.007 102.141C414.7 102.13 416.502 101.953 418.283 101.646C432.815 99.1146 445.971 87.9323 448.19 71.4479C448.32 70.5781 448.335 69.8698 448.216 69.1823C447.429 64.6615 442.132 62.6198 437.612 63.4062C434.596 63.9323 431.82 65.8281 431.294 69.3073ZM394.075 96.401L393.992 97.5417C393.132 102.349 389.309 104.714 385.747 105.333C381.773 106.026 378.789 104.286 378.117 100.448C377.903 99.2135 377.804 97.8177 378.091 96.2188C380.002 85.2917 381.513 76.1354 383.263 65.099C385.122 59.5521 388.908 55.3646 392.882 54.6719C396.445 54.0521 399.32 55.9531 399.914 59.375C400.08 60.3385 400.138 61.4583 399.914 62.625L398.471 71.349C397.601 71.2188 398.606 71.3229 397.648 71.4896C390.929 72.6615 386.539 79.0729 387.757 86.0625C388.45 90.0365 390.627 93.6094 394.075 96.401Z" fill="white"/>
<path d="M495.412 62.0967C492.542 76.4352 487.297 87.654 481.537 88.6592C479.62 88.9925 478.349 87.378 478.016 85.4561C477.875 84.6384 477.818 83.5186 478.042 82.3467L482.214 58.4665C482.558 55.5811 482.677 53.0186 482.271 50.6904C480.006 37.6696 462.605 35.0498 454.526 34.055C454.745 32.8884 454.667 31.6332 454.48 30.5342C453.381 24.2321 446.834 19.8675 440.667 20.9404C432.578 22.3467 429.021 30.305 430.381 38.1175C430.98 41.5446 432.834 44.8936 435.5 47.2529L430.198 75.9925C430.115 77.1332 430.167 78.2582 430.313 79.0759C431.099 83.6019 435.068 85.3102 438.907 84.6436C442.74 83.9717 446.334 81.0915 447.214 76.4196L451.313 54.5238C455.365 55.0915 460.599 55.1696 461.412 59.8259C461.532 60.5134 461.537 61.3571 461.433 62.3675L458.313 80.1332C457.766 83.4769 457.714 86.4509 458.193 89.1905C460.271 101.112 471.084 107.279 482.459 105.3C497.396 102.701 508.651 87.0446 512.703 62.4769C512.834 61.6071 512.855 60.8988 512.735 60.2113C512.016 56.1019 507.021 54.1488 502.636 54.9092C499.068 55.529 495.933 57.7738 495.412 62.0967Z" fill="white"/>
<path d="M575.535 41.3761C571.696 42.0428 567.852 45.1105 567.118 50.6053C564.707 68.3918 557.05 75.5116 550.884 76.5897C548.55 76.9907 546.967 75.9959 546.587 73.8032C546.394 72.7095 546.431 71.2928 546.582 69.7095L554.201 22.6365C554.462 20.897 554.472 19.3449 554.233 17.9699C553.186 11.9438 547.701 9.64696 542.634 10.5324C538.795 11.199 535.128 13.673 533.535 17.4803C530.347 16.199 524.644 15.074 517.655 16.2928C508.608 17.8657 499.602 24.5168 497.738 35.7147L491.274 74.8188C490.878 77.4282 490.759 79.9907 491.191 82.4595C493.17 93.8345 503.972 101.553 516.035 99.4543C522.477 98.3345 528.55 94.3136 532.837 88.9074C538.316 94.4491 548.238 93.8501 552.352 93.1365C563.727 91.1522 577.936 82.7511 582.842 59.022C583.832 53.3449 584.743 49.6574 584.311 47.1886C583.498 42.5272 579.509 40.6834 575.535 41.3761ZM530.071 47.8761L527.045 69.4386C525.717 78.8501 520.868 81.8136 517.993 82.3136C514.977 82.8397 513.134 81.1834 512.587 78.0272C512.274 76.2459 512.399 74.5324 512.597 73.2251L516.576 44.1522C517.722 35.3397 521.368 33.5793 523.561 33.1938C526.165 32.7407 529.498 34.8449 530.306 39.5063C530.665 41.5584 530.571 44.2615 530.071 47.8761Z" fill="white"/>
<path d="M110.966 287.571C109.08 296.228 105.263 302.681 99.6065 307.478C99.5701 305.65 99.5544 303.957 99.2471 302.176C97.8617 294.228 92.3044 287.431 87.3461 281.655C83.794 277.472 80.2419 273.29 78.9503 269.139C82.5024 266.827 84.7524 261.915 84.0388 257.806C83.0128 251.91 77.5388 247.217 70.6846 248.41C65.4763 249.316 60.7211 252.827 59.0492 258.624C55.518 269.967 51.5961 281.525 47.9034 292.759C39.1274 296.686 36.419 307.889 37.9451 316.66C40.2836 330.087 55.5284 338.165 79.7836 333.941C103.627 329.79 123.435 317.025 128.211 287.676C128.388 287.077 128.268 286.394 128.174 285.842C127.482 281.868 122.455 279.78 118.07 280.545C114.784 281.113 111.778 283.332 110.966 287.571ZM66.8774 291.431L67.6586 288.613C72.6274 292.832 77.0596 298.837 78.1846 305.275C79.3044 311.717 76.8096 317.66 69.5909 319.196C64.9346 320.009 60.4659 318.67 58.3357 315.368C59.4815 315.452 60.5753 315.259 61.5336 315.092C69.4867 313.712 72.9763 306.186 71.8044 299.467C71.2576 296.316 69.6117 293.353 66.8774 291.431Z" fill="#FD6155" fill-opacity="0.302"/>
<path d="M184.938 273.705C181.631 291.225 175.313 299.522 169.006 300.621C166.542 301.054 164.657 299.965 164.324 298.048C164.23 297.501 164.225 296.653 164.376 295.923L172.719 247.309C173.027 245.845 172.949 244.585 172.735 243.356C171.782 237.871 166.339 235.007 161.407 235.866C157.433 236.559 153.725 239.6 152.673 245.715L144.923 290.413C142.397 298.616 137.626 306.085 132.141 307.038C130.089 307.397 128.751 306.215 128.397 304.163C128.204 303.064 128.167 301.236 128.339 299.793L135.834 254.434C136.121 252.835 136.157 251.413 135.917 250.043C134.938 244.423 129.339 241.449 124.266 242.33C120.433 242.996 116.725 246.043 115.761 251.861L107.86 301.382C107.469 303.991 107.485 306.528 107.891 308.861C109.824 319.96 120.183 325.923 131.693 323.918C139.917 322.486 145.391 317.439 149.506 311.074C154.506 316.278 162.527 318.554 170.751 317.121C183.772 314.856 197.298 304.168 202.068 273.97C202.199 273.1 202.193 272.257 202.048 271.434C201.287 267.048 196.719 265.158 192.475 265.897C188.912 266.517 185.542 269.08 184.938 273.705Z" fill="#FD6155" fill-opacity="0.302"/>
<path d="M265.059 252.983C261.22 253.649 257.376 256.717 256.642 262.212C254.231 279.998 246.574 287.118 240.408 288.196C238.074 288.597 236.491 287.602 236.111 285.41C235.918 284.316 235.954 282.899 236.106 281.316L243.725 234.243C243.986 232.503 243.996 230.951 243.757 229.576C242.71 223.55 237.225 221.253 232.158 222.139C228.319 222.805 224.652 225.279 223.059 229.087C219.871 227.805 214.168 226.68 207.178 227.899C198.132 229.472 189.126 236.123 187.262 247.321L180.798 286.425C180.402 289.035 180.283 291.597 180.715 294.066C182.694 305.441 193.496 313.16 205.559 311.061C212.001 309.941 218.074 305.92 222.361 300.514C227.84 306.055 237.762 305.456 241.876 304.743C253.251 302.759 267.46 294.358 272.366 270.628C273.356 264.951 274.267 261.264 273.835 258.795C273.022 254.134 269.033 252.29 265.059 252.983ZM219.595 259.483L216.569 281.045C215.241 290.456 210.392 293.42 207.517 293.92C204.501 294.446 202.658 292.79 202.111 289.634C201.798 287.852 201.923 286.139 202.121 284.831L206.1 255.759C207.246 246.946 210.892 245.186 213.085 244.8C215.689 244.347 219.022 246.451 219.829 251.113C220.189 253.165 220.095 255.868 219.595 259.483Z" fill="#FD6155" fill-opacity="0.302"/>
<path d="M104.466 280.321C102.581 288.977 98.763 295.43 93.1068 300.227C93.0703 298.399 93.0547 296.706 92.7474 294.925C91.362 286.977 85.8047 280.18 80.8464 274.404C77.2943 270.222 73.7422 266.039 72.4505 261.888C76.0026 259.576 78.2526 254.664 77.5391 250.555C76.513 244.659 71.0391 239.967 64.1849 241.159C58.9766 242.066 54.2213 245.576 52.5495 251.373C49.0182 262.717 45.0963 274.274 41.4036 285.508C32.6276 289.435 29.9193 300.638 31.4453 309.409C33.7838 322.836 49.0286 330.914 73.2838 326.691C97.1276 322.539 116.935 309.774 121.711 280.425C121.888 279.826 121.768 279.144 121.674 278.592C120.982 274.618 115.956 272.529 111.57 273.295C108.284 273.862 105.279 276.081 104.466 280.321ZM60.3776 284.18L61.1588 281.362C66.1276 285.581 70.5599 291.586 71.6849 298.024C72.8047 304.467 70.3099 310.409 63.0911 311.946C58.4349 312.758 53.9661 311.42 51.8359 308.118C52.9818 308.201 54.0755 308.008 55.0338 307.842C62.987 306.461 66.4766 298.935 65.3047 292.217C64.7578 289.066 63.112 286.102 60.3776 284.18Z" fill="#FD6155" fill-opacity="0.502"/>
<path d="M178.438 266.454C175.131 283.975 168.813 292.272 162.506 293.371C160.042 293.803 158.157 292.714 157.824 290.798C157.73 290.251 157.725 289.402 157.876 288.673L166.219 240.058C166.527 238.594 166.449 237.334 166.235 236.105C165.282 230.621 159.839 227.756 154.907 228.615C150.933 229.308 147.225 232.35 146.173 238.464L138.423 283.162C135.897 291.365 131.126 298.834 125.641 299.787C123.589 300.147 122.251 298.964 121.897 296.912C121.704 295.813 121.667 293.985 121.839 292.542L129.334 247.183C129.621 245.584 129.657 244.162 129.417 242.792C128.438 237.173 122.839 234.199 117.766 235.079C113.933 235.746 110.225 238.792 109.261 244.61L101.36 294.131C100.969 296.74 100.985 299.277 101.391 301.61C103.324 312.709 113.683 318.673 125.193 316.667C133.417 315.235 138.891 310.188 143.006 303.824C148.006 309.027 156.027 311.303 164.251 309.871C177.272 307.605 190.798 296.917 195.568 266.719C195.699 265.85 195.693 265.006 195.548 264.183C194.787 259.798 190.219 257.907 185.975 258.647C182.412 259.266 179.042 261.829 178.438 266.454Z" fill="#FD6155" fill-opacity="0.502"/>
<path d="M258.559 245.732C254.72 246.399 250.877 249.466 250.142 254.961C247.731 272.747 240.075 279.867 233.908 280.945C231.575 281.346 229.991 280.352 229.611 278.159C229.418 277.065 229.455 275.649 229.606 274.065L237.226 226.992C237.486 225.253 237.496 223.701 237.257 222.326C236.21 216.3 230.726 214.003 225.658 214.888C221.819 215.555 218.153 218.029 216.559 221.836C213.371 220.555 207.668 219.43 200.679 220.649C191.632 222.221 182.627 228.872 180.762 240.07L174.298 279.175C173.903 281.784 173.783 284.346 174.215 286.815C176.194 298.19 186.996 305.909 199.059 303.81C205.502 302.69 211.575 298.669 215.861 293.263C221.34 298.805 231.262 298.206 235.377 297.492C246.752 295.508 260.96 287.107 265.866 263.378C266.856 257.701 267.767 254.013 267.335 251.544C266.522 246.883 262.533 245.039 258.559 245.732ZM213.095 252.232L210.069 273.794C208.741 283.206 203.892 286.169 201.017 286.669C198.002 287.195 196.158 285.539 195.611 282.383C195.298 280.602 195.423 278.888 195.621 277.581L199.601 248.508C200.746 239.695 204.392 237.935 206.585 237.55C209.189 237.096 212.522 239.201 213.33 243.862C213.689 245.914 213.595 248.617 213.095 252.232Z" fill="#FD6155" fill-opacity="0.502"/>
<path d="M97.9664 273.07C96.081 281.726 92.2633 288.179 86.607 292.976C86.5706 291.148 86.5549 289.455 86.2476 287.674C84.8622 279.726 79.3049 272.929 74.3466 267.153C70.7945 262.971 67.2424 258.789 65.9508 254.638C69.5028 252.325 71.7528 247.414 71.0393 243.304C70.0133 237.409 64.5393 232.716 57.6851 233.909C52.4768 234.815 47.7216 238.325 46.0497 244.122C42.5185 255.466 38.5966 267.023 34.9039 278.258C26.1278 282.185 23.4195 293.388 24.9456 302.159C27.2841 315.586 42.5289 323.664 66.7841 319.44C90.6278 315.289 110.435 302.523 115.211 273.174C115.388 272.575 115.268 271.893 115.175 271.341C114.482 267.367 109.456 265.278 105.071 266.044C101.784 266.612 98.7789 268.83 97.9664 273.07ZM53.8778 276.929L54.6591 274.112C59.6278 278.33 64.0601 284.336 65.1851 290.773C66.3049 297.216 63.8101 303.159 56.5914 304.695C51.9351 305.508 47.4664 304.169 45.3362 300.867C46.482 300.95 47.5758 300.758 48.5341 300.591C56.4872 299.211 59.9768 291.685 58.8049 284.966C58.258 281.815 56.6122 278.851 53.8778 276.929Z" fill="white"/>
<path d="M171.938 259.203C168.631 276.724 162.313 285.021 156.006 286.12C153.543 286.552 151.657 285.464 151.324 283.547C151.23 283 151.225 282.151 151.376 281.422L159.72 232.807C160.027 231.344 159.949 230.083 159.735 228.854C158.782 223.37 153.34 220.505 148.407 221.365C144.433 222.057 140.725 225.099 139.673 231.214L131.923 275.912C129.397 284.115 124.626 291.583 119.142 292.537C117.09 292.896 115.751 291.714 115.397 289.662C115.204 288.563 115.168 286.734 115.34 285.292L122.834 239.932C123.121 238.333 123.157 236.912 122.918 235.542C121.938 229.922 116.34 226.948 111.267 227.828C107.433 228.495 103.725 231.542 102.761 237.359L94.8604 286.88C94.4697 289.49 94.4854 292.026 94.8916 294.359C96.8239 305.458 107.183 311.422 118.694 309.417C126.918 307.984 132.392 302.938 136.506 296.573C141.506 301.776 149.527 304.052 157.751 302.62C170.772 300.354 184.298 289.667 189.069 259.469C189.199 258.599 189.194 257.755 189.048 256.932C188.287 252.547 183.72 250.656 179.475 251.396C175.912 252.016 172.543 254.578 171.938 259.203Z" fill="white"/>
<path d="M252.059 238.481C248.221 239.148 244.377 242.216 243.642 247.71C241.231 265.497 233.575 272.617 227.408 273.695C225.075 274.096 223.491 273.101 223.111 270.908C222.919 269.815 222.955 268.398 223.106 266.815L230.726 219.742C230.986 218.002 230.997 216.45 230.757 215.075C229.71 209.049 224.226 206.752 219.158 207.637C215.32 208.304 211.653 210.778 210.059 214.585C206.872 213.304 201.169 212.179 194.179 213.398C185.132 214.971 176.127 221.622 174.262 232.82L167.799 271.924C167.403 274.533 167.283 277.096 167.715 279.565C169.695 290.94 180.497 298.658 192.559 296.559C199.002 295.44 205.075 291.419 209.361 286.012C214.84 291.554 224.762 290.955 228.877 290.242C240.252 288.257 254.46 279.856 259.366 256.127C260.356 250.45 261.267 246.762 260.835 244.294C260.023 239.632 256.033 237.788 252.059 238.481ZM206.596 244.981L203.57 266.544C202.241 275.955 197.392 278.919 194.517 279.419C191.502 279.945 189.658 278.288 189.111 275.132C188.799 273.351 188.924 271.637 189.122 270.33L193.101 241.257C194.247 232.445 197.892 230.684 200.085 230.299C202.689 229.846 206.023 231.95 206.83 236.611C207.189 238.663 207.096 241.367 206.596 244.981Z" fill="white"/>
<path d="M369.47 236.34C365.136 255.142 352.793 263.762 342.339 265.34C332.845 266.772 325.964 262.184 324.902 255.168C324.678 253.658 324.699 251.965 324.98 250.095L329.777 225.033C330.517 221.543 332.954 219.064 335.157 218.731C337.907 218.319 339.532 219.762 339.886 222.101C340.115 223.611 339.813 225.345 339.142 227.418C338.662 228.897 338.454 230.335 338.662 231.71C339.392 236.522 344.49 239.548 349.303 238.825C353.293 238.22 357.183 235.101 358.704 228.403C359.517 224.481 359.569 221.095 359.095 217.929C357.142 205.002 345.287 199.194 333.459 200.981C322.595 202.621 311.86 210.715 309.089 225.908L304.74 250.2C304.136 253.663 304.084 257.048 304.543 260.075C306.933 275.892 322.412 285.231 342.631 282.179C362.985 279.101 381.324 264.517 386.345 238.153C386.61 237.127 386.605 236.142 386.48 235.319C385.813 230.918 381.136 228.809 376.871 229.455C373.433 229.976 370.24 232.142 369.47 236.34Z" fill="#FD6155" fill-opacity="0.302"/>
<path d="M424.388 240.423C424.409 240.564 424.076 238.361 423.133 235.83C423.993 234.996 424.789 233.752 425.425 232.392C427.243 228.6 429.565 216.007 428.732 210.507C426.612 196.475 413.649 188.871 398.795 191.111C385.862 193.064 374.701 202.069 372.149 214.975L366.388 244.824C365.67 248.449 365.638 251.97 366.097 254.996C368.279 269.439 381.966 276.236 395.998 274.116C406.722 272.496 415.972 267.58 420.253 256.809C422.831 257.121 425.784 257.095 428.67 256.658C444.899 254.21 455.946 240.725 458.44 225.574C458.628 224.002 458.696 222.58 458.508 221.345C457.737 216.257 453.586 213.929 449.597 214.528C445.883 215.09 442.368 217.871 441.623 223.189C439.883 232.173 434.451 239.048 426.336 240.272C425.784 240.356 424.961 240.481 424.388 240.423ZM408.399 221.173C408.175 222.475 407.925 223.637 407.956 224.762C400.263 225.074 394.461 232.283 395.706 240.538C396.55 245.194 399.263 247.314 402.206 249.121C401.149 254.205 397.513 257.147 393.248 257.788C387.883 258.6 386.008 255.507 385.513 252.205C385.118 249.595 385.43 247.012 385.774 245.554L391.321 216.158C392.284 211.371 396.706 208.028 400.966 207.387C405.232 206.741 408.42 209.215 408.899 212.377C409.274 214.856 408.925 218.142 408.399 221.173Z" fill="#FD6155" fill-opacity="0.302"/>
<path d="M506.055 216.693C502.868 230.964 497.368 242.063 491.592 242.938C489.664 243.225 488.43 241.584 488.144 239.657C488.019 238.834 487.987 237.714 488.237 236.548L492.94 212.766C493.352 209.891 493.529 207.334 493.175 204.995C491.201 191.928 473.868 188.917 465.81 187.745C466.055 186.579 466.008 185.324 465.842 184.219C464.883 177.896 458.435 173.381 452.248 174.318C444.133 175.542 440.399 183.423 441.581 191.261C442.102 194.699 443.878 198.089 446.493 200.511L440.545 229.12C440.44 230.261 440.467 231.386 440.592 232.209C441.279 236.751 445.206 238.548 449.055 237.964C452.909 237.381 456.565 234.579 457.55 229.928L462.138 208.136C466.175 208.792 471.409 208.985 472.118 213.662C472.222 214.35 472.206 215.193 472.076 216.199L468.56 233.896C467.935 237.225 467.826 240.193 468.237 242.949C470.045 254.912 480.722 261.318 492.138 259.594C507.128 257.329 518.732 241.933 523.336 217.459C523.487 216.594 523.519 215.886 523.414 215.199C522.795 211.074 517.836 209.006 513.435 209.673C509.862 210.209 506.67 212.381 506.055 216.693Z" fill="#FD6155" fill-opacity="0.302"/>
<path d="M640.445 189.925C636.726 190.488 633.169 192.993 632.596 197.582C628.898 215.019 622.534 223.16 616.341 224.092C613.591 224.509 611.789 222.811 611.455 220.613C611.33 219.785 611.341 218.941 611.643 217.207L627.466 131.951C627.768 130.222 628.101 127.78 627.872 126.264C626.982 120.352 621.69 117.915 616.872 118.644C612.612 119.285 609.096 123.05 607.705 130.576L600.549 167.957C595.737 164.04 589.289 162.342 582.825 163.316C573.883 164.665 565.002 171.071 562.867 182.087L555.409 221.196C554.841 223.957 554.846 226.769 555.221 229.243C557.049 241.347 568.06 248.129 579.888 246.342C586.351 245.363 593.174 242.082 597.867 235.889C602.836 239.92 609.872 241.811 616.752 240.774C630.367 238.717 644.57 226.582 649.716 198.233C649.846 197.227 649.976 196.222 649.851 195.399C649.205 191.134 644.705 189.28 640.445 189.925ZM579.716 224.701C576.997 224.41 575.997 222.451 575.669 220.248C575.398 218.462 575.56 216.748 575.784 215.446L580.153 191.295C581.679 182.764 585.185 180.826 587.388 180.493C590.002 180.097 593.284 182.274 593.992 186.951C594.304 189.014 594.284 191.691 593.565 195.316L590.315 211.988C587.726 222.79 582.414 224.858 579.716 224.701Z" fill="#FD6155" fill-opacity="0.302"/>
<path d="M687.644 200.66C687.665 200.8 687.331 198.597 686.389 196.066C687.248 195.233 688.045 193.988 688.68 192.628C690.498 188.837 692.821 176.243 691.987 170.743C689.868 156.712 676.904 149.108 662.05 151.347C649.118 153.3 637.956 162.306 635.404 175.212L629.644 205.061C628.925 208.686 628.894 212.207 629.352 215.233C631.534 229.675 645.222 236.472 659.253 234.352C669.977 232.733 679.227 227.816 683.508 217.045C686.086 217.358 689.04 217.332 691.925 216.894C708.154 214.446 719.201 200.962 721.696 185.811C721.883 184.238 721.951 182.816 721.764 181.582C720.993 176.493 716.842 174.165 712.852 174.764C709.139 175.326 705.623 178.108 704.878 183.425C703.139 192.41 697.706 199.285 689.592 200.509C689.04 200.592 688.217 200.717 687.644 200.66ZM671.654 181.41C671.43 182.712 671.18 183.873 671.211 184.998C663.519 185.311 657.717 192.519 658.961 200.774C659.805 205.431 662.519 207.55 665.461 209.358C664.404 214.441 660.769 217.384 656.503 218.024C651.138 218.837 649.263 215.743 648.769 212.441C648.373 209.832 648.685 207.248 649.029 205.79L654.576 176.394C655.54 171.608 659.961 168.264 664.222 167.623C668.487 166.977 671.675 169.451 672.154 172.613C672.529 175.092 672.18 178.378 671.654 181.41Z" fill="#FD6155" fill-opacity="0.302"/>
<path d="M363.134 228.945C358.801 247.748 346.457 256.367 336.004 257.945C326.509 259.378 319.629 254.789 318.566 247.774C318.343 246.263 318.363 244.57 318.645 242.701L323.441 217.638C324.181 214.149 326.619 211.669 328.822 211.336C331.572 210.925 333.197 212.367 333.551 214.706C333.78 216.216 333.478 217.951 332.806 220.024C332.327 221.503 332.119 222.94 332.327 224.315C333.056 229.128 338.155 232.154 342.968 231.43C346.957 230.826 350.848 227.706 352.369 221.008C353.181 217.086 353.233 213.701 352.759 210.534C350.806 197.607 338.952 191.8 327.124 193.586C316.259 195.227 305.525 203.32 302.754 218.513L298.405 242.805C297.801 246.268 297.749 249.654 298.207 252.68C300.598 268.498 316.077 277.836 336.296 274.784C356.65 271.706 374.988 257.123 380.009 230.758C380.275 229.732 380.27 228.748 380.145 227.925C379.478 223.524 374.801 221.414 370.535 222.06C367.098 222.581 363.905 224.748 363.134 228.945Z" fill="#FD6155" fill-opacity="0.502"/>
<path d="M418.053 233.029C418.074 233.169 417.74 230.966 416.798 228.435C417.657 227.602 418.454 226.357 419.089 224.998C420.907 221.206 423.23 208.612 422.397 203.112C420.277 189.081 407.313 181.477 392.459 183.716C379.527 185.669 368.365 194.675 365.813 207.581L360.053 237.43C359.334 241.055 359.303 244.576 359.761 247.602C361.944 262.044 375.631 268.841 389.662 266.722C400.386 265.102 409.636 260.185 413.917 249.414C416.496 249.727 419.449 249.701 422.334 249.263C438.563 246.815 449.61 233.331 452.105 218.18C452.292 216.607 452.36 215.185 452.173 213.951C451.402 208.862 447.251 206.534 443.261 207.133C439.548 207.695 436.032 210.477 435.287 215.794C433.548 224.779 428.115 231.654 420.001 232.878C419.449 232.961 418.626 233.086 418.053 233.029ZM402.063 213.779C401.839 215.081 401.589 216.242 401.621 217.367C393.928 217.68 388.126 224.888 389.371 233.143C390.214 237.8 392.928 239.919 395.871 241.727C394.813 246.81 391.178 249.753 386.912 250.393C381.548 251.206 379.673 248.112 379.178 244.81C378.782 242.201 379.095 239.617 379.438 238.159L384.985 208.763C385.949 203.977 390.371 200.633 394.631 199.992C398.897 199.347 402.084 201.82 402.563 204.982C402.938 207.461 402.589 210.748 402.063 213.779Z" fill="#FD6155" fill-opacity="0.502"/>
<path d="M499.72 209.299C496.532 223.57 491.032 234.669 485.256 235.544C483.329 235.83 482.095 234.189 481.808 232.262C481.683 231.439 481.652 230.32 481.902 229.153L486.605 205.372C487.016 202.497 487.194 199.939 486.839 197.601C484.865 184.533 467.532 181.523 459.475 180.351C459.72 179.184 459.673 177.929 459.506 176.825C458.548 170.502 452.1 165.986 445.912 166.924C437.798 168.148 434.063 176.028 435.246 183.866C435.766 187.304 437.543 190.695 440.157 193.116L434.209 221.726C434.105 222.866 434.131 223.991 434.256 224.814C434.944 229.356 438.871 231.153 442.72 230.57C446.574 229.986 450.23 227.184 451.214 222.533L455.803 200.741C459.839 201.398 465.074 201.59 465.782 206.267C465.886 206.955 465.871 207.799 465.74 208.804L462.225 226.502C461.6 229.83 461.49 232.799 461.902 235.554C463.709 247.517 474.386 253.924 485.803 252.2C500.793 249.934 512.397 234.538 517.001 210.064C517.152 209.2 517.183 208.491 517.079 207.804C516.459 203.679 511.501 201.611 507.1 202.278C503.527 202.814 500.334 204.986 499.72 209.299Z" fill="#FD6155" fill-opacity="0.502"/>
<path d="M634.11 182.531C630.391 183.093 626.834 185.599 626.261 190.187C622.563 207.625 616.198 215.765 610.005 216.697C607.255 217.114 605.453 215.416 605.12 213.218C604.995 212.39 605.005 211.546 605.308 209.812L621.13 124.557C621.433 122.828 621.766 120.385 621.537 118.869C620.646 112.958 615.354 110.52 610.537 111.25C606.276 111.89 602.761 115.656 601.37 123.182L594.214 160.562C589.401 156.645 582.953 154.947 576.49 155.921C567.547 157.27 558.667 163.677 556.531 174.692L549.073 213.802C548.505 216.562 548.511 219.375 548.886 221.849C550.714 233.953 561.724 240.734 573.552 238.947C580.016 237.968 586.839 234.687 591.531 228.494C596.5 232.526 603.537 234.416 610.417 233.38C624.031 231.322 638.235 219.187 643.38 190.838C643.511 189.833 643.641 188.828 643.516 188.005C642.87 183.739 638.37 181.885 634.11 182.531ZM573.38 217.307C570.662 217.015 569.662 215.057 569.334 212.854C569.063 211.067 569.224 209.354 569.448 208.052L573.818 183.901C575.344 175.369 578.849 173.432 581.052 173.099C583.667 172.703 586.948 174.88 587.656 179.557C587.969 181.619 587.948 184.296 587.229 187.921L583.979 204.593C581.391 215.395 576.078 217.463 573.38 217.307Z" fill="#FD6155" fill-opacity="0.502"/>
<path d="M681.308 193.265C681.329 193.406 680.996 191.203 680.053 188.671C680.912 187.838 681.709 186.593 682.344 185.234C684.162 181.442 686.485 168.848 685.652 163.348C683.532 149.317 670.568 141.713 655.714 143.953C642.782 145.906 631.621 154.911 629.068 167.817L623.308 197.666C622.589 201.291 622.558 204.812 623.016 207.838C625.199 222.281 638.886 229.078 652.917 226.958C663.641 225.338 672.891 220.421 677.173 209.651C679.751 209.963 682.704 209.937 685.589 209.5C701.818 207.052 712.865 193.567 715.36 178.416C715.548 176.843 715.615 175.421 715.428 174.187C714.657 169.098 710.506 166.77 706.516 167.369C702.803 167.932 699.287 170.713 698.542 176.031C696.803 185.015 691.371 191.89 683.256 193.114C682.704 193.197 681.881 193.322 681.308 193.265ZM665.318 174.015C665.094 175.317 664.844 176.479 664.876 177.604C657.183 177.916 651.381 185.125 652.626 193.38C653.469 198.036 656.183 200.156 659.126 201.963C658.068 207.046 654.433 209.989 650.167 210.63C644.803 211.442 642.928 208.348 642.433 205.046C642.037 202.437 642.35 199.854 642.693 198.395L648.24 169C649.204 164.213 653.626 160.869 657.886 160.229C662.152 159.583 665.339 162.057 665.818 165.218C666.193 167.697 665.844 170.984 665.318 174.015Z" fill="#FD6155" fill-opacity="0.502"/>
<path d="M356.798 221.551C352.465 240.353 340.121 248.973 329.668 250.551C320.173 251.983 313.293 247.395 312.231 240.379C312.007 238.869 312.028 237.176 312.309 235.306L317.106 210.244C317.845 206.754 320.283 204.275 322.486 203.941C325.236 203.53 326.861 204.973 327.215 207.311C327.444 208.822 327.142 210.556 326.47 212.629C325.991 214.108 325.783 215.546 325.991 216.921C326.72 221.733 331.819 224.759 336.632 224.035C340.621 223.431 344.512 220.311 346.033 213.613C346.845 209.691 346.897 206.306 346.423 203.139C344.47 190.212 332.616 184.405 320.788 186.191C309.923 187.832 299.189 195.926 296.418 211.119L292.069 235.41C291.465 238.874 291.413 242.259 291.871 245.285C294.262 261.103 309.741 270.441 329.96 267.389C350.314 264.311 368.653 249.728 373.673 223.363C373.939 222.337 373.934 221.353 373.809 220.53C373.142 216.129 368.465 214.02 364.2 214.665C360.762 215.186 357.569 217.353 356.798 221.551Z" fill="#D7FAAD"/>
<path d="M411.717 225.634C411.738 225.775 411.405 223.572 410.462 221.04C411.321 220.207 412.118 218.962 412.754 217.603C414.571 213.811 416.894 201.217 416.061 195.717C413.941 181.686 400.978 174.082 386.123 176.322C373.191 178.275 362.03 187.28 359.478 200.186L353.717 230.035C352.998 233.66 352.967 237.181 353.426 240.207C355.608 254.65 369.295 261.447 383.327 259.327C394.051 257.707 403.301 252.79 407.582 242.02C410.16 242.332 413.113 242.306 415.998 241.869C432.228 239.421 443.274 225.936 445.769 210.785C445.957 209.212 446.024 207.79 445.837 206.556C445.066 201.467 440.915 199.139 436.926 199.738C433.212 200.301 429.696 203.082 428.952 208.4C427.212 217.384 421.78 224.259 413.665 225.483C413.113 225.566 412.29 225.691 411.717 225.634ZM395.728 206.384C395.504 207.686 395.254 208.848 395.285 209.973C387.592 210.285 381.79 217.494 383.035 225.749C383.879 230.405 386.592 232.525 389.535 234.332C388.478 239.415 384.842 242.358 380.577 242.999C375.212 243.811 373.337 240.717 372.842 237.415C372.446 234.806 372.759 232.223 373.103 230.764L378.649 201.369C379.613 196.582 384.035 193.238 388.295 192.598C392.561 191.952 395.748 194.426 396.228 197.587C396.603 200.066 396.254 203.353 395.728 206.384Z" fill="#D7FAAD"/>
<path d="M493.384 201.904C490.196 216.175 484.696 227.274 478.92 228.149C476.993 228.435 475.759 226.795 475.472 224.868C475.347 224.045 475.316 222.925 475.566 221.758L480.269 197.977C480.681 195.102 480.858 192.545 480.504 190.206C478.53 177.139 461.196 174.128 453.139 172.956C453.384 171.79 453.337 170.534 453.17 169.43C452.212 163.107 445.764 158.592 439.577 159.529C431.462 160.753 427.728 168.633 428.91 176.472C429.431 179.909 431.207 183.3 433.821 185.722L427.873 214.331C427.769 215.472 427.795 216.597 427.92 217.42C428.608 221.961 432.535 223.758 436.384 223.175C440.238 222.592 443.894 219.79 444.879 215.139L449.467 193.347C453.504 194.003 458.738 194.196 459.446 198.873C459.551 199.56 459.535 200.404 459.405 201.409L455.889 219.107C455.264 222.435 455.155 225.404 455.566 228.159C457.373 240.123 468.051 246.529 479.467 244.805C494.457 242.54 506.061 227.144 510.665 202.67C510.816 201.805 510.847 201.097 510.743 200.409C510.124 196.284 505.165 194.217 500.764 194.883C497.191 195.42 493.999 197.592 493.384 201.904Z" fill="#D7FAAD"/>
<path d="M627.774 175.136C624.055 175.699 620.498 178.204 619.925 182.792C616.227 200.23 609.862 208.371 603.67 209.303C600.92 209.719 599.118 208.022 598.784 205.824C598.659 204.996 598.67 204.152 598.972 202.417L614.795 117.162C615.097 115.433 615.43 112.99 615.201 111.475C614.31 105.563 609.019 103.126 604.201 103.855C599.941 104.496 596.425 108.261 595.034 115.787L587.878 153.167C583.066 149.251 576.618 147.553 570.154 148.527C561.211 149.876 552.331 156.282 550.196 167.298L542.737 206.407C542.17 209.167 542.175 211.98 542.55 214.454C544.378 226.558 555.389 233.339 567.217 231.553C573.68 230.574 580.503 227.292 585.196 221.1C590.165 225.131 597.201 227.022 604.081 225.985C617.696 223.928 631.899 211.792 637.045 183.443C637.175 182.438 637.305 181.433 637.18 180.61C636.534 176.344 632.034 174.49 627.774 175.136ZM567.045 209.912C564.326 209.621 563.326 207.662 562.998 205.459C562.727 203.673 562.889 201.959 563.112 200.657L567.482 176.506C569.008 167.975 572.514 166.037 574.717 165.704C577.331 165.308 580.612 167.485 581.321 172.162C581.633 174.225 581.612 176.902 580.894 180.527L577.644 197.199C575.055 208.001 569.743 210.068 567.045 209.912Z" fill="#D7FAAD"/>
<path d="M674.973 185.87C674.993 186.011 674.66 183.808 673.717 181.277C674.577 180.443 675.374 179.199 676.009 177.839C677.827 174.048 680.15 161.454 679.316 155.954C677.197 141.923 664.233 134.318 649.379 136.558C636.447 138.511 625.285 147.516 622.733 160.423L616.973 190.272C616.254 193.897 616.223 197.417 616.681 200.443C618.863 214.886 632.551 221.683 646.582 219.563C657.306 217.943 666.556 213.027 670.837 202.256C673.415 202.568 676.368 202.542 679.254 202.105C695.483 199.657 706.53 186.173 709.025 171.022C709.212 169.449 709.28 168.027 709.092 166.792C708.322 161.704 704.17 159.376 700.181 159.975C696.467 160.537 692.952 163.318 692.207 168.636C690.467 177.62 685.035 184.495 676.92 185.719C676.368 185.803 675.545 185.928 674.973 185.87ZM658.983 166.62C658.759 167.923 658.509 169.084 658.54 170.209C650.848 170.522 645.045 177.73 646.29 185.985C647.134 190.641 649.848 192.761 652.79 194.568C651.733 199.652 648.098 202.594 643.832 203.235C638.467 204.048 636.592 200.954 636.098 197.652C635.702 195.042 636.014 192.459 636.358 191.001L641.905 161.605C642.868 156.818 647.29 153.475 651.551 152.834C655.816 152.188 659.004 154.662 659.483 157.824C659.858 160.303 659.509 163.589 658.983 166.62Z" fill="#D7FAAD"/>
<path d="M462.911 356.746C459.057 357.329 455.151 360.308 454.286 365.787C451.479 383.511 443.666 390.459 437.474 391.397C435.135 391.751 433.573 390.72 433.245 388.516C433.078 387.417 433.146 386.001 433.328 384.428L442 337.537C442.302 335.803 442.349 334.246 442.14 332.871C441.229 326.818 435.797 324.402 430.708 325.173C426.859 325.756 423.14 328.147 421.458 331.917C418.297 330.563 412.625 329.313 405.609 330.371C396.531 331.74 387.375 338.188 385.26 349.339L377.922 388.292C377.468 390.891 377.291 393.454 377.666 395.928C379.39 407.345 390.021 415.308 402.125 413.475C408.588 412.501 414.755 408.615 419.156 403.308C424.515 408.97 434.448 408.595 438.573 407.97C449.989 406.246 464.385 398.162 469.823 374.553C470.937 368.897 471.932 365.23 471.557 362.756C470.849 358.079 466.901 356.141 462.911 356.746ZM417.312 362.225L413.807 383.714C412.271 393.095 407.354 395.949 404.463 396.381C401.437 396.839 399.635 395.141 399.156 391.98C398.885 390.188 399.052 388.48 399.276 387.178L403.901 358.204C405.25 349.417 408.932 347.735 411.135 347.402C413.75 347.006 417.031 349.183 417.739 353.86C418.052 355.923 417.896 358.621 417.312 362.225Z" fill="#FD6155" fill-opacity="0.302"/>
<path d="M526.667 354.151C523.11 371.568 516.563 379.448 510.1 380.427C507.621 380.802 506.058 379.771 505.704 377.432C505.563 376.469 505.667 375.328 505.876 373.891L511.99 341.734C512.537 338.839 512.714 336.281 512.36 333.943C510.699 322.938 500.1 316.099 489.095 317.76C483.73 318.568 479.657 320.453 476.475 323.604C475.277 321.255 471.626 320.396 467.912 320.958C464.063 321.542 460.621 323.891 459.824 327.948L446.558 395.651C446.334 396.953 446.36 398.073 446.527 399.172C447.298 404.26 451.678 406.271 456.079 405.609C460.897 404.88 465.938 401.026 467.069 394.521C469.865 380.453 473.621 360.615 476.303 346.703C478.98 339.266 483.292 335.234 487.147 334.656C489.621 334.281 491.657 335.662 492.053 338.276C492.199 339.24 492.11 340.516 491.886 341.818L486.126 371.667C485.501 375 485.272 378.125 485.709 381.016C487.621 393.672 499.089 398.828 510.782 397.063C524.813 394.948 538.371 383.193 543.808 354.938C544.058 353.771 544.167 352.63 544.022 351.667C543.355 347.266 539.011 345.531 534.886 346.156C531.173 346.714 527.36 349.401 526.667 354.151Z" fill="#FD6155" fill-opacity="0.302"/>
<path d="M581.95 356.911C581.971 357.051 581.638 354.848 580.695 352.317C581.554 351.484 582.351 350.239 582.987 348.88C584.804 345.088 587.127 332.494 586.294 326.994C584.174 312.963 571.211 305.359 556.356 307.598C543.424 309.551 532.263 318.557 529.711 331.463L523.95 361.312C523.231 364.937 523.2 368.458 523.658 371.484C525.841 385.926 539.528 392.723 553.559 390.604C564.283 388.984 573.533 384.067 577.815 373.296C580.393 373.609 583.346 373.583 586.231 373.145C602.461 370.697 613.507 357.213 616.002 342.062C616.19 340.489 616.257 339.067 616.07 337.833C615.299 332.744 611.148 330.416 607.158 331.015C603.445 331.578 599.929 334.359 599.184 339.676C597.445 348.661 592.013 355.536 583.898 356.76C583.346 356.843 582.523 356.968 581.95 356.911ZM565.961 337.661C565.737 338.963 565.487 340.124 565.518 341.249C557.825 341.562 552.023 348.77 553.268 357.025C554.112 361.682 556.825 363.801 559.768 365.609C558.711 370.692 555.075 373.635 550.809 374.275C545.445 375.088 543.57 371.994 543.075 368.692C542.679 366.083 542.992 363.499 543.336 362.041L548.882 332.645C549.846 327.859 554.268 324.515 558.528 323.874C562.794 323.229 565.981 325.703 566.461 328.864C566.836 331.343 566.487 334.63 565.961 337.661Z" fill="#FD6155" fill-opacity="0.302"/>
<path d="M651.518 337.821L670.023 258.217C672.127 241.436 651.768 241.702 649.096 256.592L633.653 335.035C630.637 346.743 648.689 350.769 651.518 337.821ZM635.564 355.144C629.372 356.082 625.033 361.801 625.986 368.129C626.924 374.316 632.783 378.639 638.971 377.702C645.299 376.749 649.617 370.889 648.684 364.702C647.726 358.374 641.893 354.191 635.564 355.144Z" fill="#FD6155" fill-opacity="0.302"/>
<path d="M456.576 349.351C452.722 349.934 448.815 352.913 447.951 358.393C445.143 376.117 437.331 383.065 431.138 384.002C428.8 384.356 427.237 383.325 426.909 381.122C426.742 380.023 426.81 378.606 426.992 377.033L435.664 330.143C435.966 328.408 436.013 326.851 435.805 325.476C434.893 319.424 429.461 317.007 424.373 317.778C420.524 318.361 416.805 320.752 415.123 324.523C411.961 323.169 406.289 321.919 399.274 322.976C390.196 324.346 381.039 330.794 378.925 341.945L371.586 380.898C371.133 383.497 370.956 386.059 371.331 388.533C373.055 399.95 383.685 407.913 395.789 406.08C402.253 405.106 408.42 401.221 412.821 395.913C418.18 401.575 428.112 401.2 432.237 400.575C443.654 398.851 458.05 390.768 463.487 367.158C464.602 361.502 465.597 357.835 465.222 355.361C464.513 350.684 460.565 348.747 456.576 349.351ZM410.977 354.83L407.472 376.32C405.935 385.7 401.018 388.554 398.128 388.986C395.102 389.445 393.3 387.747 392.821 384.585C392.55 382.794 392.716 381.085 392.94 379.783L397.565 350.809C398.914 342.023 402.597 340.341 404.8 340.007C407.414 339.611 410.696 341.788 411.404 346.466C411.716 348.528 411.56 351.226 410.977 354.83Z" fill="#FD6155" fill-opacity="0.502"/>
<path d="M520.332 346.757C516.775 364.173 510.228 372.053 503.764 373.033C501.285 373.408 499.723 372.376 499.368 370.038C499.228 369.074 499.332 367.934 499.54 366.496L505.655 334.34C506.202 331.444 506.379 328.887 506.025 326.548C504.363 315.543 493.764 308.704 482.759 310.366C477.395 311.173 473.322 313.059 470.139 316.21C468.941 313.861 465.29 313.001 461.577 313.564C457.728 314.147 454.285 316.496 453.488 320.553L440.223 388.257C439.999 389.559 440.025 390.678 440.191 391.777C440.962 396.866 445.342 398.876 449.743 398.215C454.561 397.486 459.603 393.632 460.733 387.126C463.53 373.059 467.285 353.22 469.967 339.309C472.645 331.871 476.957 327.84 480.811 327.262C483.285 326.887 485.322 328.267 485.717 330.882C485.863 331.845 485.775 333.121 485.551 334.423L479.79 364.272C479.165 367.605 478.936 370.73 479.374 373.621C481.285 386.277 492.754 391.434 504.447 389.668C518.478 387.553 532.035 375.798 537.473 347.543C537.723 346.376 537.832 345.236 537.686 344.272C537.02 339.871 532.676 338.137 528.551 338.762C524.837 339.319 521.025 342.007 520.332 346.757Z" fill="#FD6155" fill-opacity="0.502"/>
<path d="M575.614 349.516C575.635 349.657 575.302 347.454 574.359 344.922C575.219 344.089 576.015 342.844 576.651 341.485C578.469 337.693 580.791 325.1 579.958 319.6C577.838 305.568 564.875 297.964 550.021 300.204C537.088 302.157 525.927 311.162 523.375 324.068L517.614 353.917C516.896 357.542 516.864 361.063 517.323 364.089C519.505 378.532 533.193 385.329 547.224 383.209C557.948 381.589 567.198 376.672 571.479 365.902C574.057 366.214 577.01 366.188 579.896 365.751C596.125 363.303 607.172 349.818 609.666 334.667C609.854 333.094 609.922 331.672 609.734 330.438C608.963 325.35 604.812 323.021 600.823 323.62C597.109 324.183 593.594 326.964 592.849 332.282C591.109 341.266 585.677 348.141 577.562 349.365C577.01 349.449 576.187 349.574 575.614 349.516ZM559.625 330.266C559.401 331.568 559.151 332.73 559.182 333.855C551.489 334.167 545.687 341.376 546.932 349.631C547.776 354.287 550.489 356.407 553.432 358.214C552.375 363.297 548.739 366.24 544.474 366.881C539.109 367.693 537.234 364.6 536.739 361.297C536.344 358.688 536.656 356.105 537 354.646L542.547 325.251C543.51 320.464 547.932 317.12 552.193 316.48C556.458 315.834 559.646 318.308 560.125 321.469C560.5 323.949 560.151 327.235 559.625 330.266Z" fill="#FD6155" fill-opacity="0.502"/>
<path d="M645.182 330.427L663.687 250.823C665.792 234.041 645.432 234.307 642.76 249.198L627.318 327.64C624.302 339.349 642.354 343.375 645.182 330.427ZM629.229 347.75C623.036 348.687 618.698 354.406 619.651 360.734C620.588 366.922 626.448 371.245 632.635 370.307C638.963 369.354 643.281 363.495 642.349 357.307C641.39 350.979 635.557 346.797 629.229 347.75Z" fill="#FD6155" fill-opacity="0.502"/>
<path d="M450.24 341.956C446.386 342.54 442.48 345.519 441.615 350.998C438.808 368.722 430.995 375.67 424.803 376.607C422.464 376.962 420.902 375.93 420.573 373.727C420.407 372.628 420.474 371.212 420.657 369.639L429.329 322.748C429.631 321.014 429.678 319.456 429.469 318.081C428.558 312.029 423.125 309.613 418.037 310.383C414.188 310.967 410.469 313.357 408.787 317.128C405.625 315.774 399.954 314.524 392.938 315.581C383.86 316.951 374.704 323.399 372.589 334.55L365.25 373.503C364.797 376.102 364.62 378.665 364.995 381.139C366.719 392.555 377.349 400.519 389.454 398.686C395.917 397.712 402.084 393.826 406.485 388.519C411.844 394.18 421.777 393.805 425.902 393.18C437.318 391.456 451.714 383.373 457.152 359.764C458.266 354.107 459.261 350.441 458.886 347.967C458.178 343.29 454.23 341.352 450.24 341.956ZM404.641 347.435L401.136 368.925C399.599 378.305 394.683 381.159 391.792 381.592C388.766 382.05 386.964 380.352 386.485 377.191C386.214 375.399 386.381 373.691 386.605 372.389L391.23 343.415C392.579 334.628 396.261 332.946 398.464 332.613C401.079 332.217 404.36 334.394 405.068 339.071C405.381 341.133 405.224 343.831 404.641 347.435Z" fill="#D7FAAD"/>
<path d="M513.996 339.362C510.439 356.779 503.892 364.659 497.429 365.638C494.949 366.013 493.387 364.982 493.033 362.643C492.892 361.68 492.996 360.539 493.205 359.101L499.319 326.945C499.866 324.049 500.043 321.492 499.689 319.154C498.028 308.148 487.429 301.31 476.423 302.971C471.059 303.779 466.986 305.664 463.804 308.815C462.606 306.466 458.955 305.607 455.241 306.169C451.392 306.753 447.949 309.101 447.153 313.159L433.887 380.862C433.663 382.164 433.689 383.284 433.856 384.383C434.627 389.471 439.007 391.482 443.408 390.82C448.226 390.091 453.267 386.237 454.397 379.732C457.194 365.664 460.949 345.825 463.632 331.914C466.309 324.476 470.621 320.445 474.476 319.867C476.949 319.492 478.986 320.872 479.382 323.487C479.528 324.45 479.439 325.726 479.215 327.029L473.455 356.878C472.83 360.211 472.601 363.336 473.038 366.226C474.949 378.883 486.418 384.039 498.111 382.273C512.142 380.159 525.699 368.404 531.137 340.148C531.387 338.982 531.496 337.841 531.351 336.878C530.684 332.476 526.34 330.742 522.215 331.367C518.502 331.924 514.689 334.612 513.996 339.362Z" fill="#D7FAAD"/>
<path d="M569.279 342.122C569.3 342.262 568.966 340.059 568.024 337.528C568.883 336.695 569.68 335.45 570.315 334.09C572.133 330.299 574.456 317.705 573.623 312.205C571.503 298.174 558.539 290.57 543.685 292.809C530.753 294.762 519.591 303.767 517.039 316.674L511.279 346.523C510.56 350.148 510.529 353.668 510.987 356.695C513.17 371.137 526.857 377.934 540.888 375.814C551.612 374.195 560.862 369.278 565.144 358.507C567.722 358.82 570.675 358.793 573.56 358.356C589.789 355.908 600.836 342.424 603.331 327.273C603.519 325.7 603.586 324.278 603.399 323.043C602.628 317.955 598.477 315.627 594.487 316.226C590.774 316.788 587.258 319.57 586.513 324.887C584.774 333.872 579.341 340.747 571.227 341.971C570.675 342.054 569.852 342.179 569.279 342.122ZM553.289 322.872C553.065 324.174 552.815 325.335 552.847 326.46C545.154 326.773 539.352 333.981 540.597 342.236C541.44 346.892 544.154 349.012 547.097 350.82C546.039 355.903 542.404 358.846 538.138 359.486C532.774 360.299 530.899 357.205 530.404 353.903C530.008 351.293 530.321 348.71 530.664 347.252L536.211 317.856C537.175 313.07 541.597 309.726 545.857 309.085C550.123 308.439 553.31 310.913 553.789 314.075C554.164 316.554 553.815 319.84 553.289 322.872Z" fill="#D7FAAD"/>
<path d="M638.847 323.032L657.352 243.428C659.456 226.647 639.097 226.912 636.425 241.803L620.982 320.246C617.967 331.954 636.019 335.98 638.847 323.032ZM622.894 340.355C616.701 341.293 612.362 347.011 613.315 353.339C614.253 359.527 620.112 363.85 626.3 362.912C632.628 361.959 636.946 356.1 636.013 349.912C635.055 343.584 629.222 339.402 622.894 340.355Z" fill="#D7FAAD"/>
</svg>
